<?xml version="1.0" standalone="no"?>
<!DOCTYPE svg PUBLIC "-//W3C//DTD SVG 20010904//EN"
 "http://www.w3.org/TR/2001/REC-SVG-20010904/DTD/svg10.dtd">
<svg version="1.0" xmlns="http://www.w3.org/2000/svg"
 width="512.000000pt" height="512.000000pt" viewBox="0 0 512.000000 512.000000"
 preserveAspectRatio="xMidYMid meet">
<metadata>
Created by potrace 1.16, written by Peter Selinger 2001-2019
</metadata>
<g transform="translate(0.000000,512.000000) scale(0.100000,-0.100000)"
fill="#FFFFFF" stroke="none">
<path d="M37 5078 c-42 -43 -43 -61 -3 -34 25 16 64 77 49 75 -5 0 -25 -19
-46 -41z"/>
<path d="M85 5078 c-12 -24 -35 -52 -53 -63 -26 -17 -31 -26 -32 -59 0 -32 3
-37 17 -32 15 6 15 4 -2 -14 -36 -40 -7 -30 43 15 56 51 85 91 107 154 l14 41
-37 0 c-34 0 -39 -4 -57 -42z"/>
<path d="M235 5089 c-22 -97 -88 -197 -175 -260 -55 -40 -72 -59 -52 -59 10 0
50 28 105 74 49 40 115 133 161 224 l26 52 -29 0 c-25 0 -30 -5 -36 -31z"/>
<path d="M343 5057 c-62 -119 -159 -215 -278 -272 -38 -19 -63 -35 -54 -35 43
0 148 67 224 144 75 75 152 191 143 216 -2 5 -18 -18 -35 -53z"/>
<path d="M435 5083 c-32 -76 -107 -182 -170 -242 -57 -53 -167 -117 -248 -144
-24 -9 -24 -77 1 -77 28 1 148 46 199 76 105 61 241 221 283 332 36 96 36 92
-9 92 -38 0 -42 -3 -56 -37z"/>
<path d="M586 5083 c-15 -96 -108 -243 -229 -362 -93 -92 -167 -141 -274 -184
-70 -27 -83 -36 -83 -54 0 -13 2 -23 5 -23 13 0 156 77 218 117 86 55 246 209
297 285 44 66 78 150 87 214 7 54 -12 60 -21 7z"/>
<path d="M736 5050 c-3 -38 -17 -104 -30 -147 -13 -43 -27 -91 -30 -106 -9
-39 -128 -156 -202 -199 -76 -44 -221 -103 -294 -120 -30 -6 -47 -13 -38 -15
27 -7 182 34 251 66 86 38 180 103 245 167 44 45 52 58 52 90 0 20 13 78 29
128 29 91 46 206 32 206 -5 0 -11 -31 -15 -70z"/>
<path d="M822 5047 c-1 -97 -15 -153 -63 -254 -66 -139 -135 -197 -429 -363
-91 -51 -202 -115 -247 -142 l-83 -49 0 -54 0 -54 73 55 c69 53 99 69 338 183
131 62 236 140 355 263 134 138 177 252 157 413 l-8 70 -46 3 -46 3 -1 -74z
m22 -279 c-17 -35 -63 -88 -75 -88 -5 0 11 27 33 60 45 65 69 80 42 28z m-174
-193 c-21 -25 -220 -153 -220 -141 0 2 30 22 68 45 37 23 87 57 112 75 51 39
58 43 40 21z m-230 -150 c0 -2 -10 -9 -22 -15 -22 -11 -22 -10 -4 4 21 17 26
19 26 11z"/>
<path d="M1004 5027 c-3 -195 -58 -309 -230 -480 -75 -75 -173 -145 -285 -206
-41 -23 -69 -41 -64 -41 19 0 182 97 257 153 41 31 107 91 147 132 138 146
181 241 189 423 2 61 1 112 -4 112 -5 0 -10 -42 -10 -93z"/>
<path d="M1099 5078 c2 -24 -2 -80 -9 -125 -21 -144 -93 -265 -246 -414 -146
-141 -187 -167 -516 -323 -154 -73 -159 -85 -144 -311 9 -122 -1 -168 -50
-232 -14 -19 -24 -37 -21 -40 8 -8 54 67 72 116 8 24 15 73 16 110 l1 66 9
-45 c11 -54 3 -110 -23 -166 -19 -41 -70 -98 -83 -94 -16 6 -105 -71 -105 -91
0 -18 4 -17 48 13 26 18 66 50 90 71 23 22 42 36 42 32 0 -20 -56 -78 -115
-121 -36 -25 -65 -52 -65 -60 0 -20 78 36 130 92 38 42 81 112 61 100 -21 -13
-11 13 10 28 14 9 19 21 15 31 -3 9 -2 14 3 11 20 -13 34 97 27 211 -8 134 0
155 84 219 56 43 62 51 23 30 -39 -20 -110 -95 -122 -129 -6 -16 -9 -61 -6
-100 3 -61 3 -65 -5 -27 -32 166 -2 204 254 328 309 150 550 332 619 468 57
112 89 272 73 358 -6 33 -10 36 -39 36 -32 0 -32 0 -28 -42z m-902 -1125 c-3
-10 -5 -4 -5 12 0 17 2 24 5 18 2 -7 2 -21 0 -30z m40 -120 c-3 -10 -5 -2 -5
17 0 19 2 27 5 18 2 -10 2 -26 0 -35z"/>
<path d="M1278 5095 c2 -14 6 -25 8 -25 2 0 4 11 4 25 0 14 -4 25 -9 25 -4 0
-6 -11 -3 -25z"/>
<path d="M1375 5060 c3 -33 7 -87 10 -120 2 -32 0 -105 -5 -161 -18 -191 -71
-260 -286 -371 -56 -29 -101 -54 -99 -56 2 -2 58 24 125 59 185 95 240 157
280 312 26 103 27 30 0 -81 -33 -137 -49 -158 -153 -197 -86 -32 -168 -73
-282 -141 -112 -66 -194 -100 -293 -121 -42 -8 -98 -26 -123 -38 -49 -25 -108
-85 -135 -136 -14 -28 -18 -30 -26 -15 -6 11 -6 27 1 47 29 83 90 123 272 175
154 44 227 81 302 153 88 83 145 181 198 341 l29 85 -27 -35 c-15 -19 -55 -64
-89 -100 -33 -36 -86 -99 -116 -141 -55 -75 -110 -119 -206 -168 -58 -30 -334
-143 -349 -144 -7 0 -10 -3 -8 -7 2 -4 -14 -24 -37 -46 -67 -64 -78 -100 -71
-230 4 -74 2 -128 -7 -165 -29 -122 -106 -230 -222 -311 -48 -34 -58 -46 -58
-70 l0 -30 38 23 c102 62 188 128 248 192 64 67 74 67 38 -4 -25 -49 -129
-133 -227 -184 -86 -45 -97 -53 -97 -77 l0 -28 67 37 c155 83 238 156 283 244
27 51 60 236 60 330 0 96 35 160 118 216 64 43 155 72 189 59 13 -6 -2 -17
-67 -49 -88 -44 -156 -111 -144 -142 10 -24 18 -18 62 44 39 56 50 64 173 125
72 36 165 91 207 122 43 30 150 91 239 135 186 91 190 95 225 235 31 128 31
299 -1 412 -13 45 -27 82 -32 82 -5 0 -7 -27 -4 -60z"/>
<path d="M1425 5093 c3 -16 12 -66 21 -113 22 -118 30 -353 14 -419 -10 -41
-22 -60 -62 -96 -48 -43 -70 -55 -268 -148 -52 -24 -132 -72 -178 -106 -45
-34 -124 -84 -175 -112 -111 -62 -149 -96 -184 -169 -23 -47 -28 -71 -31 -165
-2 -66 0 -106 5 -100 5 6 19 56 32 112 39 180 73 232 199 309 42 26 113 74
157 107 44 33 117 77 163 99 45 21 119 55 165 76 111 52 198 132 228 210 40
106 37 343 -6 490 -15 50 -17 52 -50 52 -32 0 -34 -2 -30 -27z"/>
<path d="M1590 5113 c0 -5 7 -51 15 -103 25 -164 16 -287 -34 -435 -11 -33
-18 -61 -16 -64 10 -9 66 130 80 195 17 79 19 218 5 284 -19 87 -33 130 -41
130 -5 0 -9 -3 -9 -7z"/>
<path d="M1714 5103 c33 -108 35 -274 6 -389 -11 -43 -39 -117 -62 -164 -47
-96 -117 -173 -260 -282 -103 -79 -149 -142 -184 -252 -26 -84 -58 -263 -52
-293 2 -10 14 34 26 97 30 155 66 259 113 329 38 57 74 89 212 185 71 50 139
131 183 218 84 165 133 554 71 566 -16 3 -17 -2 -13 -50 l5 -53 -16 53 c-9 28
-20 52 -25 52 -5 0 -7 -8 -4 -17z"/>
<path d="M1871 5098 c0 -13 4 -59 9 -103 10 -94 -3 -216 -29 -284 -10 -25 -28
-71 -40 -101 l-22 -55 25 30 c30 35 80 158 101 247 8 35 18 114 22 176 l6 112
-36 0 c-32 0 -37 -3 -36 -22z"/>
<path d="M1987 5100 c-3 -14 -8 -64 -11 -111 -3 -47 -8 -101 -11 -120 -4 -30
-4 -31 4 -7 12 37 35 232 29 249 -4 9 -8 5 -11 -11z"/>
<path d="M2010 5033 c-1 -114 -20 -218 -59 -319 -64 -165 -141 -251 -352 -397
-69 -47 -149 -107 -178 -133 -90 -81 -137 -210 -181 -494 -27 -176 -52 -265
-105 -377 -84 -178 -180 -247 -425 -307 -164 -40 -206 -63 -257 -140 -46 -68
-54 -102 -63 -281 -7 -143 -11 -170 -40 -249 -33 -95 -78 -191 -86 -184 -2 3
5 39 15 80 12 45 24 146 30 249 6 96 13 194 16 219 4 40 4 42 -5 15 -6 -16
-15 -84 -20 -150 -24 -280 -44 -372 -100 -454 -40 -57 -90 -97 -152 -119 -41
-14 -48 -20 -48 -44 l0 -27 42 15 c70 24 120 59 184 125 85 90 110 131 138
234 21 77 25 84 25 50 1 -60 -45 -219 -86 -297 -46 -88 -122 -158 -224 -206
-44 -20 -79 -43 -79 -49 0 -20 19 -16 69 14 212 123 300 261 336 528 l14 100
-3 -120 c-9 -287 -130 -468 -379 -569 -34 -14 -37 -18 -37 -56 l0 -40 58 32
c93 52 164 103 214 155 137 141 197 351 198 685 0 209 17 276 88 350 38 40 80
58 242 108 138 42 213 82 280 150 83 83 154 232 189 395 6 28 20 109 31 180
54 346 98 422 345 595 170 119 261 212 313 320 59 123 102 316 102 463 0 33
-3 37 -25 37 -25 0 -25 -1 -25 -87z"/>
<path d="M2086 5023 c-9 -121 -39 -273 -71 -358 -53 -142 -153 -256 -336 -382
-208 -145 -263 -224 -317 -458 -12 -49 -28 -137 -37 -195 -37 -248 -103 -410
-214 -521 -82 -82 -165 -125 -321 -168 -119 -33 -145 -46 -193 -90 -66 -60
-85 -157 -63 -314 24 -174 26 -212 16 -317 -22 -206 -85 -332 -218 -430 -62
-46 -297 -170 -321 -170 -6 0 -11 -4 -11 -9 0 -6 25 1 56 15 233 103 378 214
440 336 36 70 84 264 87 345 1 37 -2 133 -7 214 -10 159 -4 197 41 257 42 56
95 83 224 113 204 49 329 121 404 234 56 85 82 170 100 335 9 80 19 147 22
150 12 11 -9 -323 -23 -378 -43 -165 -157 -257 -430 -346 -129 -43 -211 -88
-236 -133 -21 -35 -24 -81 -14 -203 6 -65 4 -97 -8 -135 -20 -64 -13 -71 8 -8
9 26 21 95 26 153 8 87 16 116 43 169 41 82 81 110 227 161 169 59 217 86 290
159 114 115 155 234 185 536 18 192 20 200 51 296 49 152 122 244 289 362 188
133 271 249 315 437 l20 85 -4 -65 c-3 -36 -7 -76 -10 -90 -3 -14 1 -6 8 17
22 64 36 204 36 356 0 145 -16 192 -23 65 l-3 -73 -2 73 c-1 39 -6 72 -11 72
-4 0 -11 -44 -15 -97z m21 -165 c-3 -7 -5 -2 -5 12 0 14 2 19 5 13 2 -7 2 -19
0 -25z"/>
<path d="M2151 5094 c-1 -16 9 -68 20 -115 19 -71 21 -103 17 -214 -6 -149
-33 -246 -96 -350 -55 -90 -174 -209 -300 -298 -62 -44 -131 -100 -153 -126
-45 -50 -91 -135 -120 -220 -27 -77 -22 -88 6 -14 51 133 112 204 286 335 128
96 257 226 307 311 95 159 123 360 83 607 -17 104 -19 110 -21 60 l-2 -55 -9
44 c-12 61 -17 72 -18 35z m36 -121 c-3 -10 -5 -4 -5 12 0 17 2 24 5 18 2 -7
2 -21 0 -30z"/>
<path d="M2217 5113 c-12 -11 -8 -88 9 -191 20 -121 14 -266 -16 -377 -32
-120 -108 -271 -164 -325 -25 -24 -46 -47 -46 -50 0 -3 16 -5 36 -4 32 1 40 7
75 60 155 229 231 540 184 743 -9 36 -16 84 -17 108 -2 39 -5 43 -29 43 -14 0
-29 -3 -32 -7z"/>
<path d="M2582 5073 c-77 -94 -89 -132 -122 -403 -30 -245 -69 -393 -185 -690
-97 -249 -204 -440 -362 -643 -157 -201 -196 -288 -208 -459 -15 -207 56 -369
254 -580 180 -193 441 -357 711 -448 246 -83 461 -38 631 130 134 133 186 277
176 489 -10 204 -58 357 -135 430 -21 20 -89 62 -153 93 -269 133 -296 242
-203 817 14 87 38 190 55 237 58 159 172 302 409 514 206 185 263 273 277 435
7 90 0 125 -27 125 -18 0 -20 -7 -20 -66 0 -85 -24 -193 -62 -274 -26 -56 -57
-92 -232 -265 -112 -110 -224 -231 -250 -268 -60 -84 -145 -271 -184 -402 -39
-131 -89 -379 -98 -480 -7 -92 11 -181 49 -242 51 -81 167 -164 275 -198 13
-4 22 -9 19 -11 -7 -7 -115 34 -177 67 -73 39 -150 114 -182 177 -20 42 -23
60 -22 167 1 107 5 137 41 275 59 222 113 377 182 520 69 143 156 251 305 380
94 80 167 162 196 221 28 53 79 234 86 298 3 31 7 66 10 79 2 12 0 22 -6 22
-5 0 -10 -15 -10 -32 -1 -90 -72 -291 -124 -347 -17 -18 -87 -72 -156 -120
-145 -100 -283 -231 -329 -313 -52 -93 -76 -172 -237 -778 -26 -99 -33 -145
-34 -221 0 -119 17 -172 78 -240 74 -82 144 -117 316 -158 48 -12 97 -26 108
-32 40 -21 107 -114 108 -148 0 -8 -12 8 -26 37 -45 92 -86 109 -279 123 -165
11 -228 22 -281 50 -53 28 -111 85 -137 134 -44 84 -31 295 28 484 36 114 81
211 98 211 39 0 58 36 107 210 28 96 61 203 75 238 14 34 25 67 25 72 0 16
-36 11 -53 -8 -19 -20 -89 -208 -142 -377 -21 -66 -56 -167 -77 -224 -51 -133
-84 -267 -101 -406 l-14 -110 -8 59 c-11 85 0 265 25 381 12 55 54 199 95 320
72 217 102 333 125 490 32 214 161 504 296 663 32 36 34 42 17 42 -24 0 -99
-78 -137 -142 -33 -57 -128 -284 -156 -376 -12 -37 -30 -134 -41 -217 -11 -82
-27 -177 -35 -210 -29 -114 -98 -310 -102 -289 -3 20 104 571 134 687 35 138
172 420 239 495 l47 52 -84 0 -85 0 -62 -65 c-100 -104 -139 -212 -171 -470
-27 -218 -112 -585 -210 -900 -62 -201 -69 -379 -22 -533 69 -221 274 -342
557 -329 156 7 218 -2 255 -38 72 -69 78 -190 16 -321 -43 -91 -99 -152 -190
-209 -112 -69 -208 -97 -352 -103 -128 -5 -207 9 -336 58 -107 40 -264 157
-299 221 -7 14 11 2 47 -30 314 -281 768 -293 1013 -26 67 74 101 148 106 233
l4 67 -9 -58 c-21 -128 -113 -241 -248 -304 -127 -59 -257 -75 -395 -49 -161
31 -312 117 -428 245 -115 125 -170 239 -190 388 -25 185 22 380 138 583 85
148 129 228 116 215 -26 -27 -196 -333 -236 -425 -83 -191 -100 -254 -101
-360 0 -79 5 -107 28 -170 33 -90 36 -113 16 -117 -22 -5 -77 100 -100 193
-25 98 -25 195 0 294 29 113 47 149 147 300 95 143 234 385 285 498 103 225
150 397 178 644 30 266 59 365 138 469 83 109 78 99 49 99 -18 0 -37 -14 -65
-47z m187 -282 c-22 -68 -46 -162 -54 -210 -7 -50 -13 -71 -14 -50 -1 39 23
182 41 239 13 45 60 151 64 147 2 -1 -15 -58 -37 -126z m-72 -368 c-3 -10 -5
-4 -5 12 0 17 2 24 5 18 2 -7 2 -21 0 -30z m-17 -83 l-11 -25 6 25 c2 14 5 34
6 45 2 19 2 19 6 0 2 -12 -1 -32 -7 -45z m-16 -64 c-3 -15 -8 -25 -11 -23 -2
3 -1 17 3 31 3 15 8 25 11 23 2 -3 1 -17 -3 -31z m-30 -105 c-9 -34 -19 -60
-21 -58 -2 3 4 32 13 66 10 33 19 59 21 57 3 -2 -3 -32 -13 -65z m-37 -123
c-3 -8 -6 -5 -6 6 -1 11 2 17 5 13 3 -3 4 -12 1 -19z m-10 -40 c-3 -8 -6 -5
-6 6 -1 11 2 17 5 13 3 -3 4 -12 1 -19z m-791 -999 c-14 -68 -31 -142 -39
-164 l-15 -40 -6 35 c-9 45 17 173 51 252 15 34 28 57 30 51 2 -5 -8 -66 -21
-134z m79 -313 c40 -84 95 -161 186 -261 56 -61 59 -65 22 -37 -24 19 -73 66
-109 105 -37 40 -58 59 -46 42 53 -77 241 -233 364 -303 127 -71 327 -119 454
-108 233 21 434 140 521 308 36 70 28 11 -9 -63 -66 -134 -234 -260 -408 -306
-103 -27 -245 -22 -348 12 -147 50 -370 192 -498 319 -123 123 -228 311 -195
350 8 9 17 16 22 16 5 0 24 -33 44 -74z m1482 -8 c-3 -8 -6 -5 -6 6 -1 11 2
17 5 13 3 -3 4 -12 1 -19z m10 -75 c-3 -10 -5 -2 -5 17 0 19 2 27 5 18 2 -10
2 -26 0 -35z m-1292 -339 c64 -59 59 -61 -17 -7 -42 30 -68 63 -50 63 4 0 34
-25 67 -56z m25 -49 c51 -42 299 -199 369 -234 270 -136 563 -97 766 103 39
39 79 82 89 96 l17 25 -5 -38 c-14 -111 -128 -251 -251 -308 -97 -46 -190 -57
-298 -36 -151 30 -358 120 -513 223 -85 57 -243 198 -209 187 11 -3 27 -12 35
-18z"/>
<path d="M3337 5001 c-40 -129 -46 -181 -21 -205 18 -19 28 -20 55 -6 31 17
57 81 74 181 8 52 18 106 21 122 6 27 6 27 -43 27 l-50 0 -36 -119z"/>
<path d="M3924 5068 c-67 -206 -290 -502 -491 -653 -44 -32 -85 -71 -90 -85
-5 -15 -41 -75 -80 -136 -77 -120 -92 -155 -116 -259 -9 -38 -35 -149 -59
-245 -85 -354 -51 -489 160 -639 153 -108 214 -184 247 -304 7 -28 14 -43 14
-31 1 32 -37 134 -66 179 -36 54 -82 95 -186 167 -177 122 -205 207 -157 483
12 65 28 174 36 243 29 256 56 310 238 495 273 277 464 493 521 592 24 41 95
216 95 235 0 5 -11 10 -24 10 -21 0 -27 -8 -42 -52z"/>
<path d="M4131 5040 c-19 -126 -38 -181 -122 -355 -29 -60 -145 -211 -277
-360 -95 -107 -225 -299 -279 -411 -61 -130 -53 -129 16 2 73 141 137 233 180
259 59 36 204 161 286 246 76 80 75 79 -25 -17 -121 -115 -240 -210 -240 -190
0 3 38 48 85 101 98 110 177 209 225 280 18 28 35 52 37 54 5 7 37 -40 43 -64
4 -15 20 8 62 90 72 141 98 226 105 348 l6 97 -45 0 -46 0 -11 -80z"/>
<path d="M4333 5080 c0 -25 2 -35 4 -22 2 12 2 32 0 45 -2 12 -4 2 -4 -23z"/>
<path d="M4431 5070 c-2 -111 -40 -211 -115 -295 l-35 -40 9 35 c6 19 10 44 9
55 0 11 -7 -5 -15 -34 -21 -79 -66 -133 -369 -441 -283 -287 -354 -369 -400
-460 -90 -177 -67 -369 50 -428 11 -5 56 -19 100 -31 104 -29 164 -63 226
-128 128 -135 140 -282 44 -520 -19 -47 -31 -92 -28 -105 3 -17 2 -19 -5 -9
-14 20 -38 -94 -62 -296 -11 -92 -27 -193 -36 -223 -16 -54 -74 -174 -81 -167
-2 2 6 39 17 83 21 83 33 180 51 409 6 77 20 190 31 250 35 188 35 217 -1 290
-38 77 -81 116 -220 198 -137 81 -210 149 -245 226 -67 151 -56 341 30 512 62
124 211 331 333 464 31 33 41 47 22 30 -38 -34 -214 -240 -283 -330 -155 -204
-247 -451 -236 -634 9 -161 70 -230 283 -321 176 -75 264 -139 280 -203 4 -14
-14 -87 -45 -182 -57 -179 -83 -322 -98 -530 -10 -156 -27 -216 -88 -317 -55
-92 -192 -222 -305 -290 -195 -118 -201 -122 -226 -166 -34 -57 -28 -112 25
-252 21 -58 47 -148 56 -200 47 -258 69 -361 91 -420 13 -36 35 -96 49 -135
32 -89 35 -195 7 -285 -23 -74 -11 -68 19 10 28 71 36 172 20 240 -7 29 -29
91 -49 139 -54 125 -88 247 -115 406 -13 77 -22 141 -21 142 3 5 172 -440 221
-582 68 -196 44 -326 -87 -469 -33 -36 -56 -66 -51 -66 20 0 124 126 154 187
64 130 48 265 -69 583 -167 455 -166 451 -112 559 26 52 54 82 187 200 86 76
177 163 202 192 25 30 86 97 135 149 50 53 103 114 118 137 65 94 97 246 97
459 0 142 21 222 104 402 86 186 98 223 104 323 8 156 -27 234 -173 389 -123
130 -130 144 -130 250 0 76 4 92 33 152 53 109 187 240 368 359 138 91 312
229 370 292 55 62 119 175 129 232 3 17 -3 8 -13 -20 -41 -108 -100 -192 -192
-273 -56 -48 -283 -218 -313 -233 -26 -13 -27 -15 83 81 130 113 218 200 262
259 79 105 128 247 128 374 l0 67 -34 0 -33 0 -6 -77 c-8 -95 -28 -166 -74
-258 -79 -158 -201 -287 -489 -516 -185 -148 -216 -184 -254 -299 -18 -53 -21
-81 -18 -150 6 -109 23 -143 138 -271 108 -120 146 -192 162 -307 13 -92 1
-203 -27 -264 -8 -18 -12 -24 -9 -13 14 42 16 266 4 327 -12 56 -49 118 -71
118 -5 0 -45 24 -89 54 -97 66 -209 130 -216 123 -3 -3 14 -16 38 -28 66 -34
170 -103 202 -135 32 -33 86 -122 86 -143 0 -8 -13 4 -29 25 -41 57 -131 139
-179 163 -23 12 -63 24 -89 27 -82 9 -88 12 -112 54 -29 51 -39 165 -21 241
31 133 84 208 349 488 237 250 420 450 454 496 76 104 127 271 99 327 -9 20
-11 15 -11 -32z m-1140 -1590 c38 -121 124 -208 289 -295 68 -36 133 -79 162
-107 51 -50 98 -136 97 -178 l-1 -25 -7 25 c-15 49 -40 87 -88 134 -45 45 -75
62 -292 164 -106 49 -191 171 -199 283 -2 32 -1 84 4 116 l8 58 8 -70 c5 -38
13 -86 19 -105z m606 -877 c-3 -10 -5 -2 -5 17 0 19 2 27 5 18 2 -10 2 -26 0
-35z m-11 -203 c-10 -232 -40 -329 -136 -445 -54 -64 -99 -97 -54 -40 100 130
138 233 160 440 8 77 17 157 21 178 12 79 16 30 9 -133z"/>
<path d="M4706 5098 c3 -12 7 -62 7 -112 1 -57 4 -80 8 -61 15 69 7 195 -13
195 -5 0 -6 -10 -2 -22z"/>
<path d="M4923 5106 c4 -9 12 -46 19 -81 6 -36 13 -63 16 -61 8 8 -20 146 -31
153 -6 4 -8 0 -4 -11z"/>
<path d="M5052 5110 c0 -8 4 -26 8 -40 6 -20 8 -21 8 -5 0 11 -3 29 -8 40 -5
12 -8 14 -8 5z"/>
<path d="M5078 5069 c-4 -37 1 -73 17 -123 l22 -71 1 123 c2 113 1 122 -17
122 -15 0 -19 -10 -23 -51z m9 -51 c-3 -8 -6 -5 -6 6 -1 11 2 17 5 13 3 -3 4
-12 1 -19z m23 -53 c0 -5 -5 -3 -10 5 -5 8 -10 20 -10 25 0 6 5 3 10 -5 5 -8
10 -19 10 -25z"/>
<path d="M4081 5022 c-24 -132 -66 -199 -220 -351 -75 -74 -104 -107 -66 -74
122 106 225 220 251 280 28 62 57 176 52 202 -2 9 -10 -17 -17 -57z"/>
<path d="M5022 4993 c11 -41 65 -133 78 -133 5 0 -6 22 -25 50 -18 27 -36 63
-40 80 -4 16 -10 32 -15 35 -5 3 -4 -12 2 -32z"/>
<path d="M4332 4985 c0 -16 2 -22 5 -12 2 9 2 23 0 30 -3 6 -5 -1 -5 -18z"/>
<path d="M4961 4926 c0 -17 -12 -38 -26 -52 -22 -20 -25 -31 -25 -92 0 -98
-26 -143 -115 -204 -38 -25 -92 -71 -120 -101 -61 -65 -94 -83 -263 -141 -71
-24 -147 -53 -169 -64 -44 -23 -68 -47 -55 -56 29 -17 427 115 575 191 138 71
357 230 357 259 0 12 -5 11 -27 -5 -248 -184 -366 -255 -500 -300 -91 -31 -99
-25 -15 10 44 19 93 50 125 79 29 26 79 61 113 78 105 53 144 116 144 235 0
56 14 78 23 35 3 -13 3 -3 0 22 -2 25 -7 65 -12 90 -6 34 -9 38 -10 16z"/>
<path d="M4321 4924 c0 -11 3 -14 6 -6 3 7 2 16 -1 19 -3 4 -6 -2 -5 -13z"/>
<path d="M1946 4804 c-4 -14 -5 -28 -3 -31 3 -2 8 8 11 23 4 14 5 28 3 31 -3
2 -8 -8 -11 -23z"/>
<path d="M5076 4769 c-31 -23 -35 -30 -22 -35 29 -11 66 12 66 41 0 14 -1 25
-2 24 -2 0 -20 -13 -42 -30z"/>
<path d="M4992 4725 c0 -16 2 -22 5 -12 2 9 2 23 0 30 -3 6 -5 -1 -5 -18z"/>
<path d="M3984 4698 l-29 -33 33 29 c17 17 32 31 32 33 0 8 -8 1 -36 -29z"/>
<path d="M3910 4615 c-24 -25 -42 -45 -39 -45 3 0 25 20 49 45 24 25 42 45 39
45 -3 0 -25 -20 -49 -45z"/>
<path d="M4029 4533 c-13 -16 -12 -17 4 -4 9 7 17 15 17 17 0 8 -8 3 -21 -13z"/>
<path d="M5065 4517 c-27 -17 -106 -68 -175 -113 -163 -107 -247 -140 -440
-174 -52 -9 -51 -9 26 -5 175 9 270 44 500 181 133 79 144 87 144 115 0 16 -1
29 -2 28 -2 0 -25 -15 -53 -32z"/>
<path d="M3414 4488 l-19 -23 23 19 c21 18 27 26 19 26 -2 0 -12 -10 -23 -22z"/>
<path d="M1406 4401 c-3 -5 -61 -47 -129 -92 -164 -111 -209 -149 -256 -220
-55 -82 -60 -124 -31 -270 17 -90 21 -140 19 -227 -3 -77 -1 -105 5 -89 6 12
11 123 11 247 2 343 22 384 267 549 106 72 136 97 125 107 -3 3 -8 1 -11 -5z"/>
<path d="M315 4311 c-22 -11 -35 -19 -30 -19 14 -1 93 36 80 37 -5 0 -28 -8
-50 -18z"/>
<path d="M218 4264 c-38 -20 -36 -28 2 -9 17 9 30 18 30 20 0 7 -1 6 -32 -11z"/>
<path d="M308 4254 c-39 -21 -35 -28 5 -8 37 19 44 24 31 24 -5 -1 -21 -8 -36
-16z"/>
<path d="M5075 4222 c-49 -37 -133 -123 -214 -221 -51 -61 -61 -80 -61 -111 0
-78 71 -117 119 -67 12 13 37 62 57 108 41 96 64 137 111 196 28 36 34 50 31
84 l-3 41 -40 -30z"/>
<path d="M118 4197 c-74 -60 -118 -136 -117 -202 1 -27 5 -61 9 -75 6 -16 7 3
4 50 -5 70 -3 79 25 127 17 28 52 68 78 89 66 52 68 54 60 54 -3 0 -30 -19
-59 -43z"/>
<path d="M224 4201 c-96 -70 -124 -126 -124 -247 0 -114 -18 -176 -66 -225
-20 -20 -35 -42 -33 -48 7 -20 80 86 95 135 8 26 14 88 14 137 0 125 33 186
140 259 14 9 22 17 19 17 -3 1 -24 -12 -45 -28z"/>
<path d="M4847 4131 c-32 -49 -91 -90 -140 -98 -23 -3 -71 5 -144 25 -139 39
-193 45 -284 32 -65 -9 -219 -68 -219 -84 0 -3 26 7 58 22 77 35 237 44 310
17 64 -24 134 -71 212 -141 52 -46 57 -49 24 -13 l-42 44 17 35 c20 43 28 50
64 50 61 0 134 47 164 103 24 47 9 52 -20 8z"/>
<path d="M3791 4073 c-66 -80 -99 -200 -81 -296 6 -28 11 -52 13 -53 2 -2 1
37 -1 85 -5 110 13 176 69 250 45 59 45 68 0 14z"/>
<path d="M5100 4076 c-5 -15 -10 -61 -10 -101 0 -153 -38 -242 -150 -357 -76
-79 -111 -88 -154 -42 -29 32 -56 26 -56 -10 0 -56 114 -105 201 -87 94 20
189 80 189 119 0 24 -1 23 -41 -13 -23 -20 -56 -43 -75 -51 -38 -16 -154 -19
-154 -4 0 6 7 10 16 10 8 0 41 26 73 58 121 121 161 212 161 364 0 49 5 98 11
110 6 11 8 22 5 25 -3 3 -10 -6 -16 -21z"/>
<path d="M4162 4022 c-92 -33 -181 -122 -203 -205 -11 -42 -8 -125 6 -162 l8
-20 -17 20 c-35 40 -4 -6 64 -97 65 -86 210 -350 210 -382 0 -51 -48 -157
-117 -258 -77 -114 -115 -187 -134 -261 -6 -23 -14 -145 -18 -272 -7 -213 -10
-236 -35 -310 -29 -84 -100 -201 -143 -235 -14 -11 -39 -20 -55 -20 -45 0 -64
-14 -198 -144 -69 -67 -166 -157 -217 -200 -138 -117 -167 -179 -138 -302 18
-78 50 -154 64 -154 6 0 27 35 47 77 34 71 36 78 23 102 -18 32 -72 41 -99 16
-18 -16 -19 -15 -25 17 -16 86 36 137 501 488 139 105 204 169 266 264 51 78
73 154 110 371 44 265 78 352 220 563 60 89 78 130 78 177 0 32 -9 45 -69 103
-69 67 -118 143 -105 164 5 7 3 8 -6 3 -10 -6 -12 -4 -7 9 5 11 3 15 -5 10 -8
-5 -9 -2 -5 10 4 9 3 15 -2 12 -5 -3 -12 1 -15 10 -9 24 -7 31 5 14 9 -13 10
-13 6 0 -2 8 -10 15 -17 15 -7 0 -15 6 -18 14 -3 9 0 11 9 6 22 -14 -55 87
-79 103 -12 8 -21 17 -18 19 2 3 -2 20 -10 38 -8 19 -14 61 -14 93 0 133 106
245 246 259 100 11 190 -45 201 -123 10 -80 -34 -128 -117 -128 -69 0 -100 23
-100 75 0 47 -21 61 -51 33 -17 -15 -20 -27 -16 -57 6 -45 26 -70 85 -104 36
-21 52 -25 105 -21 104 6 152 61 145 164 -1 30 -2 54 0 54 2 0 12 -19 22 -42
24 -52 26 -147 5 -187 -56 -109 -199 -119 -306 -23 -108 97 -118 200 -29 276
20 17 26 26 16 26 -23 0 -82 -55 -96 -90 -7 -17 -10 -52 -8 -79 5 -50 5 -49
167 -295 39 -59 105 -121 164 -154 153 -86 397 -118 519 -68 83 34 158 85 158
107 0 16 -10 13 -82 -21 -53 -25 -103 -41 -138 -44 -51 -5 -52 -5 -13 4 23 5
56 16 75 25 59 30 158 100 158 112 0 7 -29 -10 -64 -36 -92 -70 -141 -86 -256
-85 -111 0 -197 26 -308 92 -82 49 -171 127 -132 116 88 -25 185 16 227 96 21
39 24 56 21 125 -4 96 -29 154 -94 219 -64 65 -122 89 -219 93 -60 3 -93 -1
-133 -15z m-52 -533 c15 -28 5 -23 -15 7 -9 15 -12 23 -6 20 6 -4 16 -16 21
-27z"/>
<path d="M845 3992 c-73 -47 -130 -109 -159 -171 -18 -40 -21 -66 -23 -206 -1
-118 -6 -172 -18 -205 -14 -40 -14 -43 0 -30 32 33 55 127 64 268 7 125 11
144 37 192 16 29 49 69 73 89 24 20 55 45 69 57 14 11 23 26 21 33 -3 8 -25
-1 -64 -27z"/>
<path d="M2364 3959 c-19 -39 -34 -73 -32 -75 2 -2 21 30 41 71 20 41 35 75
32 75 -3 0 -21 -32 -41 -71z"/>
<path d="M2277 3774 c-37 -74 -33 -83 4 -10 17 32 29 60 27 62 -2 2 -16 -21
-31 -52z"/>
<path d="M3913 3775 c0 -27 2 -38 4 -22 2 15 2 37 0 50 -2 12 -4 0 -4 -28z"/>
<path d="M3396 3785 c-3 -9 -6 -22 -5 -28 0 -7 5 -1 10 12 5 13 8 26 5 28 -2
2 -6 -3 -10 -12z"/>
<path d="M827 3738 c-20 -31 -25 -59 -42 -197 -24 -210 -57 -249 -329 -392
-215 -112 -241 -142 -312 -366 -37 -117 -50 -146 -75 -167 -17 -14 -39 -26
-50 -26 -14 0 -19 -7 -19 -30 0 -37 24 -40 64 -9 38 30 50 59 81 188 33 136
90 257 143 301 34 29 99 63 315 165 162 76 262 227 281 425 6 57 -9 120 -31
127 -6 2 -18 -6 -26 -19z"/>
<path d="M3381 3724 c0 -11 3 -14 6 -6 3 7 2 16 -1 19 -3 4 -6 -2 -5 -13z"/>
<path d="M3730 3704 c0 -6 7 -19 16 -30 14 -18 14 -18 3 6 -14 31 -19 36 -19
24z"/>
<path d="M5060 3653 l-55 -58 58 55 c31 30 57 56 57 57 0 8 -10 -1 -60 -54z"/>
<path d="M1190 3660 c-6 -25 -25 -92 -41 -149 -33 -119 -37 -152 -8 -71 31 87
71 240 66 253 -2 7 -10 -8 -17 -33z"/>
<path d="M1082 3670 c0 -14 2 -19 5 -12 2 6 2 18 0 25 -3 6 -5 1 -5 -13z"/>
<path d="M1491 3664 c0 -11 3 -14 6 -6 3 7 2 16 -1 19 -3 4 -6 -2 -5 -13z"/>
<path d="M2226 3518 c-77 -216 -97 -307 -103 -449 -7 -155 10 -243 69 -362 57
-114 171 -228 285 -284 174 -87 365 -81 505 15 66 46 94 118 54 144 -5 3 -36
-7 -68 -23 -100 -51 -236 -59 -368 -22 -61 17 -80 28 -80 50 0 8 -22 35 -50
60 -27 25 -60 59 -72 75 -19 27 -15 26 35 -15 116 -94 201 -127 332 -127 104
0 164 18 302 91 62 32 119 59 127 59 8 0 24 -12 35 -26 24 -31 29 -19 5 14
-35 50 -45 49 -199 -29 -143 -71 -145 -72 -239 -77 -120 -6 -206 19 -312 90
-164 110 -242 277 -245 525 l-1 98 -14 -60 c-25 -111 -28 -234 -10 -319 50
-221 210 -399 407 -451 69 -19 197 -19 274 0 76 18 86 18 79 1 -3 -7 -30 -25
-59 -40 -185 -91 -410 -43 -572 120 -206 210 -240 519 -102 948 21 66 37 122
35 124 -2 1 -24 -57 -50 -130z"/>
<path d="M3760 3646 c0 -2 8 -10 18 -17 15 -13 16 -12 3 4 -13 16 -21 21 -21
13z"/>
<path d="M1072 3610 c0 -19 2 -27 5 -17 2 9 2 25 0 35 -3 9 -5 1 -5 -18z"/>
<path d="M3768 3573 c11 -16 30 -37 43 -48 12 -11 5 1 -16 28 -43 52 -57 63
-27 20z"/>
<path d="M3868 3540 c23 -25 42 -50 42 -54 0 -5 18 -28 40 -52 22 -24 40 -39
40 -34 0 12 -89 118 -131 155 -24 21 -22 17 9 -15z"/>
<path d="M1062 3550 c0 -14 2 -19 5 -12 2 6 2 18 0 25 -3 6 -5 1 -5 -13z"/>
<path d="M5099 3533 c-13 -16 -12 -17 4 -4 16 13 21 21 13 21 -2 0 -10 -8 -17
-17z"/>
<path d="M1041 3480 c-23 -77 -90 -200 -137 -250 -60 -64 -132 -94 -311 -131
-81 -17 -173 -42 -204 -56 -129 -57 -198 -178 -229 -401 -5 -40 -16 -87 -24
-105 -16 -40 -69 -86 -107 -94 -24 -4 -29 -11 -29 -34 0 -27 2 -29 28 -23 59
14 113 57 142 112 6 13 22 81 35 151 28 156 54 218 112 272 60 55 121 81 293
125 286 72 355 130 425 357 14 48 25 95 23 105 -2 9 -9 -3 -17 -28z"/>
<path d="M2395 3260 c2 -75 11 -130 29 -193 31 -105 32 -115 6 -92 -20 18 -21
18 -14 -1 28 -74 118 -163 192 -189 101 -35 257 -29 432 16 l75 19 -70 -6
c-114 -10 -246 -6 -308 11 -82 21 -132 50 -195 108 -92 88 -129 175 -143 336
l-8 96 4 -105z"/>
<path d="M5050 3264 c-36 -25 -103 -66 -150 -91 -289 -158 -504 -298 -581
-380 -70 -73 -94 -120 -125 -241 -31 -124 -30 -153 2 -37 35 129 65 187 131
256 88 93 260 207 518 344 193 102 275 154 275 176 0 10 -1 19 -2 18 -2 0 -32
-20 -68 -45z"/>
<path d="M1585 3178 c-102 -241 -145 -414 -145 -583 0 -163 57 -281 183 -382
34 -27 107 -84 162 -128 98 -77 229 -204 470 -455 66 -69 176 -171 245 -226
140 -113 199 -174 273 -283 192 -284 277 -721 182 -930 -16 -34 -51 -79 -95
-122 l-70 -69 79 0 79 0 46 51 c113 126 131 249 76 519 -83 403 -220 666 -432
825 -33 25 -103 70 -155 101 -83 49 -121 82 -331 293 -159 161 -286 277 -385
356 -82 64 -151 124 -154 133 -6 13 20 42 37 42 4 0 44 -37 91 -83 46 -45 138
-126 204 -179 66 -53 218 -194 338 -312 215 -214 218 -216 326 -271 131 -65
208 -133 286 -249 63 -95 104 -186 136 -305 13 -46 24 -80 26 -74 5 15 -45
178 -76 248 -45 98 -117 204 -187 272 -49 48 -88 74 -178 118 -80 39 -130 71
-161 103 -40 40 -59 71 -37 60 94 -48 202 -98 213 -98 8 0 -21 15 -63 34 -42
18 -97 45 -122 60 -25 15 -46 24 -46 20 0 -3 -8 3 -17 14 -62 71 -355 340
-438 402 -135 101 -266 229 -315 306 -22 35 -52 98 -67 141 -24 71 -27 92 -27
228 -1 171 24 325 74 454 45 116 28 95 -25 -31z"/>
<path d="M5080 3211 c-14 -10 -88 -53 -164 -96 -278 -153 -540 -347 -590 -436
-15 -27 -9 -24 29 19 86 96 235 195 375 250 117 46 120 47 120 21 0 -30 -53
-77 -141 -123 -171 -90 -294 -189 -336 -270 -33 -63 -55 -149 -98 -380 -49
-267 -68 -335 -126 -446 -55 -107 -140 -208 -377 -452 -114 -117 -222 -233
-238 -258 -109 -159 -139 -304 -110 -525 20 -148 20 -212 1 -312 -8 -43 -15
-81 -15 -85 0 -19 19 -5 48 36 48 66 60 153 43 308 -32 290 -25 400 31 517 26
54 67 101 274 310 413 418 437 459 525 885 76 372 115 435 375 608 143 96 198
140 327 265 70 69 87 91 87 115 0 28 0 28 -27 13 -16 -9 -53 -31 -83 -50 -30
-19 -59 -35 -64 -35 -5 0 32 26 82 57 51 32 92 63 92 70 0 17 -10 16 -40 -6z"/>
<path d="M1633 2875 c0 -22 2 -30 4 -17 2 12 2 30 0 40 -3 9 -5 -1 -4 -23z"/>
<path d="M1631 2745 c-4 -140 102 -368 240 -515 31 -34 39 -40 19 -15 -165
210 -233 349 -250 515 -7 64 -7 64 -9 15z"/>
<path d="M3514 2590 c0 -58 1 -81 3 -52 2 28 2 76 0 105 -2 28 -3 5 -3 -53z"/>
<path d="M1108 2546 c44 -57 22 -123 -64 -191 -100 -79 -156 -140 -185 -200
-75 -156 -3 -280 237 -409 60 -32 153 -86 208 -120 89 -55 106 -71 175 -160
97 -126 121 -154 81 -93 -99 151 -351 428 -508 559 -115 97 -138 149 -108 252
14 47 31 71 105 150 55 58 92 106 96 125 7 32 -11 78 -42 102 -12 10 -11 5 5
-15z"/>
<path d="M5011 2529 c-186 -80 -308 -172 -387 -290 -62 -94 -95 -181 -138
-372 -52 -233 -67 -257 -307 -504 -108 -110 -217 -227 -241 -260 -93 -120
-128 -222 -128 -370 0 -151 22 -224 126 -428 50 -99 102 -208 114 -242 22 -62
23 -63 61 -63 22 0 39 1 39 3 0 25 -65 177 -131 307 l-83 165 -4 151 c-5 171
6 227 61 324 36 63 167 198 345 354 192 168 237 243 272 446 27 157 47 225 96
329 24 51 44 101 44 110 0 9 -9 24 -20 34 l-21 17 26 34 c51 67 180 153 308
206 71 30 77 35 77 61 0 16 -3 29 -7 29 -5 0 -50 -19 -102 -41z"/>
<path d="M732 2433 c-6 -15 -22 -55 -36 -88 -34 -82 -48 -173 -36 -238 11 -60
68 -178 106 -222 l27 -30 -22 35 c-13 19 -39 69 -59 110 -35 71 -37 80 -37
175 0 93 3 106 38 189 21 49 36 90 34 93 -3 2 -9 -9 -15 -24z"/>
<path d="M4162 2400 c0 -14 2 -19 5 -12 2 6 2 18 0 25 -3 6 -5 1 -5 -13z"/>
<path d="M4152 2345 c0 -16 2 -22 5 -12 2 9 2 23 0 30 -3 6 -5 -1 -5 -18z"/>
<path d="M4142 2285 c0 -16 2 -22 5 -12 2 9 2 23 0 30 -3 6 -5 -1 -5 -18z"/>
<path d="M5034 2294 c-18 -14 -18 -15 4 -4 12 6 22 13 22 15 0 8 -5 6 -26 -11z"/>
<path d="M0 2246 c0 -30 2 -33 25 -28 21 4 25 1 25 -21 0 -14 -11 -39 -25 -55
-24 -29 -32 -52 -18 -52 3 0 21 11 39 25 74 57 63 165 -17 165 -26 0 -29 -3
-29 -34z"/>
<path d="M4132 2230 c0 -14 2 -19 5 -12 2 6 2 18 0 25 -3 6 -5 1 -5 -13z"/>
<path d="M5073 2209 c-56 -28 -129 -107 -161 -177 -26 -55 -27 -64 -28 -227 0
-163 -1 -172 -26 -220 -15 -27 -46 -69 -70 -91 -50 -48 -165 -127 -191 -131
-74 -12 -259 -194 -346 -342 -52 -88 -35 -69 38 40 38 57 95 130 128 161 58
55 182 142 190 134 3 -2 -8 -23 -23 -46 -21 -32 -25 -46 -17 -58 17 -28 41
-25 57 7 9 17 58 60 114 100 185 132 217 182 257 406 19 105 55 192 96 231 19
18 29 38 29 56 0 34 -4 35 -46 3 -48 -37 -82 -115 -98 -225 -16 -117 -31 -100
-31 35 0 82 3 97 33 157 29 59 79 116 126 143 12 7 17 19 14 38 l-3 27 -42
-21z"/>
<path d="M1462 2014 c-43 -22 -67 -70 -58 -117 10 -54 74 -144 176 -248 50
-51 112 -125 137 -164 25 -38 98 -124 164 -191 143 -146 160 -177 167 -314 5
-114 -11 -187 -68 -306 -58 -121 -102 -170 -215 -239 -181 -111 -240 -182
-240 -290 0 -51 5 -67 30 -102 26 -37 35 -43 68 -43 l37 0 -27 53 c-36 71 -37
137 -1 199 35 58 76 94 184 160 48 29 112 76 143 103 221 201 229 517 19 713
-24 22 -71 66 -106 98 -35 32 -86 92 -113 133 -48 72 -50 76 -45 130 l5 56
-10 -44 -11 -44 -69 69 c-120 119 -148 178 -115 243 49 94 229 50 417 -101 92
-73 647 -620 709 -697 109 -135 187 -340 197 -513 13 -225 -48 -344 -249 -479
-47 -32 -90 -64 -94 -71 -5 -7 3 -5 16 4 14 10 60 39 104 65 43 27 104 76 136
110 78 83 101 145 108 284 7 163 -21 288 -100 444 -57 113 -73 133 -315 390
-437 464 -621 629 -771 690 -84 34 -166 41 -210 19z"/>
<path d="M1692 1777 c-19 -23 -4 -45 45 -63 74 -29 149 -83 318 -233 209 -186
291 -281 377 -436 32 -58 38 -53 7 6 -33 66 -101 167 -179 269 -101 130 -330
362 -413 417 -74 49 -135 65 -155 40z"/>
<path d="M5102 1758 c-22 -28 -50 -97 -66 -162 -31 -126 -68 -172 -236 -290
-192 -134 -234 -186 -430 -521 -73 -126 -92 -184 -98 -305 -3 -76 0 -128 13
-189 9 -46 21 -131 25 -190 l8 -106 -2 117 c-2 81 1 119 9 122 8 3 11 31 9 88
l-4 83 35 -165 c19 -91 35 -182 35 -202 0 -21 4 -38 10 -38 15 0 1 108 -36
283 -54 247 -39 334 97 559 155 257 188 295 389 444 212 158 247 210 257 380
3 57 4 104 1 104 -3 0 -10 -6 -16 -12z"/>
<path d="M370 1619 c-131 -22 -243 -110 -324 -253 -26 -48 -46 -89 -43 -92 2
-3 39 23 82 58 196 160 234 182 340 194 140 16 360 -82 649 -290 43 -31 81
-54 85 -51 10 11 -160 165 -284 257 -141 106 -254 164 -345 178 -74 11 -84 11
-160 -1z"/>
<path d="M924 1515 c-9 -22 1 -31 80 -69 156 -75 282 -181 439 -369 39 -46 54
-57 78 -57 42 0 53 33 32 102 -25 85 -60 148 -83 148 -13 0 -20 -7 -20 -20 0
-15 -7 -20 -25 -20 -17 0 -51 24 -107 76 -46 42 -110 96 -143 119 -123 88
-236 129 -251 90z"/>
<path d="M1795 1479 c-13 -39 24 -71 118 -105 48 -17 102 -43 122 -58 52 -40
130 -157 166 -250 45 -112 52 -243 19 -341 -43 -129 -165 -277 -284 -346 -64
-36 -44 -38 27 -3 133 68 289 214 347 327 50 96 76 98 91 6 7 -44 7 -35 4 44
-5 106 -23 189 -60 272 -91 207 -379 475 -509 475 -27 0 -36 -5 -41 -21z"/>
<path d="M5070 1435 c-25 -26 -97 -85 -160 -132 -221 -166 -271 -219 -389
-415 -65 -109 -105 -196 -125 -275 -21 -80 -20 -91 7 -95 20 -3 23 -10 28 -74
9 -99 30 -161 99 -298 33 -66 60 -126 60 -133 0 -9 14 -13 40 -13 22 0 40 2
40 4 0 20 -41 108 -85 181 -73 122 -91 192 -76 302 27 189 116 353 267 490 56
51 73 71 62 76 -26 9 -85 -40 -169 -141 -92 -111 -151 -222 -172 -327 -10 -49
-17 -65 -22 -52 -23 55 39 220 124 335 83 111 157 189 305 317 72 62 150 133
174 157 40 42 43 48 40 92 l-3 47 -45 -46z"/>
<path d="M445 1430 c-105 -16 -202 -77 -347 -219 -71 -68 -98 -101 -98 -118 0
-21 13 -13 100 67 182 165 288 215 455 214 114 -1 199 -32 345 -128 146 -96
248 -202 335 -350 89 -151 139 -207 220 -247 61 -30 69 -31 152 -27 101 5 145
23 206 85 107 106 124 270 44 403 -24 40 -187 260 -192 260 -2 0 25 -46 61
-102 126 -201 162 -340 114 -441 -42 -90 -131 -140 -247 -140 -61 0 -82 5
-137 32 -75 36 -124 88 -223 229 -124 179 -283 320 -467 418 -116 61 -215 81
-321 64z"/>
<path d="M538 1323 c18 -2 45 -2 60 0 15 2 0 4 -33 4 -33 0 -45 -2 -27 -4z"/>
<path d="M5010 1251 c-58 -44 -123 -98 -145 -122 l-40 -43 55 48 c30 27 96 77
147 113 51 35 93 69 93 74 0 5 -1 9 -2 9 -2 0 -50 -36 -108 -79z"/>
<path d="M350 1259 c-124 -62 -193 -111 -293 -207 -43 -43 -57 -63 -57 -85 0
-27 5 -24 103 68 110 104 271 224 352 261 28 13 42 24 33 24 -9 0 -71 -27
-138 -61z"/>
<path d="M640 1313 c8 -3 34 -14 58 -24 23 -10 42 -16 42 -13 0 8 -83 44 -100
43 -13 -1 -13 -1 0 -6z"/>
<path d="M1605 1296 c10 -14 19 -26 22 -26 7 0 -17 39 -28 46 -6 3 -3 -5 6
-20z"/>
<path d="M750 1267 c0 -2 21 -18 46 -36 25 -19 79 -74 121 -125 42 -50 77 -93
79 -95 2 -2 4 -2 4 2 0 13 -149 185 -186 213 -43 34 -64 47 -64 41z"/>
<path d="M455 1246 l-40 -14 68 -1 c124 -2 238 -57 368 -180 44 -40 79 -71 79
-68 0 9 -150 150 -202 190 -98 74 -194 100 -273 73z"/>
<path d="M5038 1212 c-75 -53 -98 -74 -53 -48 48 28 141 96 130 96 -6 -1 -40
-22 -77 -48z"/>
<path d="M2500 1105 c94 -188 123 -288 123 -425 0 -237 -86 -378 -338 -552
-60 -42 -121 -87 -134 -102 l-24 -26 74 0 c73 1 75 1 99 35 14 19 72 85 130
147 68 74 117 137 138 178 43 86 31 36 -15 -59 -29 -61 -56 -95 -145 -184
-111 -110 -144 -162 -45 -71 29 27 87 80 130 117 81 72 133 149 171 257 16 45
20 81 20 200 -1 245 -47 367 -226 591 -18 22 -3 -15 42 -106z m64 -68 c24 -51
47 -108 51 -127 4 -21 -7 -3 -28 47 -19 45 -49 107 -65 138 -17 31 -25 51 -17
45 8 -6 34 -53 59 -103z"/>
<path d="M5053 1076 c-71 -72 -85 -99 -20 -39 23 21 53 46 65 55 13 9 22 23
20 32 -2 11 -22 -4 -65 -48z"/>
<path d="M418 1123 c12 -2 32 -2 45 0 12 2 2 4 -23 4 -25 0 -35 -2 -22 -4z"/>
<path d="M314 1095 c-44 -22 -151 -109 -272 -220 -38 -35 -43 -45 -40 -76 l3
-36 95 111 c139 163 180 201 241 224 30 12 47 21 38 21 -8 1 -37 -10 -65 -24z"/>
<path d="M491 1116 c2 -2 18 -6 34 -10 22 -5 26 -4 15 4 -14 9 -59 15 -49 6z"/>
<path d="M144 1038 l-29 -33 33 29 c30 28 37 36 29 36 -2 0 -16 -15 -33 -32z"/>
<path d="M4884 1013 c-26 -32 -38 -49 -25 -38 25 22 85 95 78 95 -2 0 -26 -26
-53 -57z"/>
<path d="M752 1032 c89 -109 114 -143 161 -220 30 -48 87 -151 127 -230 78
-152 150 -242 220 -276 19 -9 26 -11 15 -4 -11 7 -50 42 -86 78 -74 74 -139
189 -139 248 l0 36 103 -105 c86 -89 111 -109 160 -128 59 -21 116 -26 152
-12 15 6 4 10 -40 15 -139 17 -232 92 -410 331 -61 83 -146 183 -188 223 -77
72 -119 97 -75 44z"/>
<path d="M514 1039 c102 -11 202 -64 289 -152 39 -38 61 -56 49 -40 -80 112
-245 205 -359 202 -43 -1 -41 -2 21 -10z"/>
<path d="M5040 1006 c-35 -25 -69 -42 -74 -39 -5 4 -6 2 -3 -3 3 -6 -14 -38
-38 -73 -45 -65 -86 -166 -84 -210 0 -21 3 -18 13 14 32 102 127 222 223 283
30 19 43 34 43 50 0 12 -3 22 -7 22 -5 0 -37 -20 -73 -44z"/>
<path d="M418 1033 c7 -3 16 -2 19 1 4 3 -2 6 -13 5 -11 0 -14 -3 -6 -6z"/>
<path d="M79 983 l-24 -28 28 24 c25 23 32 31 24 31 -2 0 -14 -12 -28 -27z"/>
<path d="M2466 968 c4 -13 18 -57 30 -98 13 -41 23 -67 23 -58 1 21 -48 178
-55 178 -3 0 -2 -10 2 -22z"/>
<path d="M355 934 c-38 -25 -107 -64 -152 -85 -146 -68 -204 -144 -202 -261
l2 -63 7 60 c15 135 109 229 267 270 33 9 73 12 93 9 85 -15 215 -112 304
-224 l27 -35 -18 35 c-10 19 -55 73 -100 121 -46 47 -83 91 -83 96 0 6 7 16
15 23 23 19 119 -32 187 -101 65 -67 112 -146 179 -305 49 -115 115 -238 175
-329 19 -27 41 -71 50 -97 13 -40 20 -48 40 -48 34 0 31 22 -17 110 -34 62
-37 71 -17 55 l23 -20 -22 25 c-39 46 -101 173 -158 325 -71 192 -122 280
-206 360 -87 82 -162 118 -254 122 -69 4 -71 3 -140 -43z"/>
<path d="M977 929 c18 -21 44 -56 59 -79 15 -22 29 -40 31 -40 10 0 -36 66
-77 109 -25 27 -31 31 -13 10z"/>
<path d="M3573 914 c-32 -108 -24 -211 34 -434 45 -169 61 -261 76 -420 2 -19
4 -8 5 25 3 84 -21 218 -75 429 -51 200 -58 293 -30 396 21 74 13 77 -10 4z"/>
<path d="M4885 898 l-60 -63 63 60 c34 33 62 61 62 62 0 8 -10 -1 -65 -59z"/>
<path d="M14 928 l-19 -23 23 19 c21 18 27 26 19 26 -2 0 -12 -10 -23 -22z"/>
<path d="M4191 899 c-6 -18 -9 -34 -7 -36 2 -2 9 10 15 28 6 18 9 34 7 36 -2
2 -9 -10 -15 -28z"/>
<path d="M3741 838 c-34 -103 -51 -197 -51 -292 0 -73 8 -118 45 -260 24 -94
47 -197 51 -228 6 -48 10 -58 25 -58 11 0 19 6 19 14 0 31 -32 166 -71 295
-61 206 -64 367 -8 529 10 30 17 57 15 59 -2 2 -13 -24 -25 -59z"/>
<path d="M5067 861 c-45 -34 -67 -62 -97 -121 -38 -74 -40 -260 -4 -354 5 -13
-1 -15 -33 -13 -37 2 -38 1 -41 -36 -4 -45 6 -62 83 -145 54 -58 85 -120 85
-168 0 -20 5 -24 28 -24 l28 0 1 83 c1 81 0 82 -37 123 -30 33 -39 52 -45 95
-4 30 -16 90 -28 134 -29 112 -28 226 1 282 12 24 28 42 35 40 6 -1 11 5 10
13 -2 8 13 25 32 38 27 17 35 29 35 52 0 37 -5 37 -53 1z"/>
<path d="M4673 838 c-15 -20 -25 -38 -20 -38 3 0 12 11 21 25 17 26 16 35 -1
13z"/>
<path d="M4161 817 c-1 -4 -23 -86 -51 -181 -27 -95 -50 -179 -49 -187 0 -8
25 69 54 171 30 102 53 190 50 195 -2 6 -4 6 -4 2z"/>
<path d="M1085 775 c76 -126 185 -244 251 -271 20 -8 38 -13 41 -11 2 3 -12
10 -32 17 -50 17 -142 105 -205 197 -55 81 -87 120 -55 68z"/>
<path d="M890 770 c6 -11 13 -20 16 -20 2 0 0 9 -6 20 -6 11 -13 20 -16 20 -2
0 0 -9 6 -20z"/>
<path d="M2522 760 c0 -14 2 -19 5 -12 2 6 2 18 0 25 -3 6 -5 1 -5 -13z"/>
<path d="M4626 727 c-56 -93 -80 -182 -81 -292 0 -110 9 -137 95 -270 21 -33
46 -84 55 -112 10 -29 21 -53 26 -53 12 0 12 0 -17 82 -23 63 -26 80 -19 138
5 36 8 81 8 100 0 48 -23 343 -31 405 l-7 50 -29 -48z"/>
<path d="M211 749 c-110 -19 -171 -78 -171 -167 0 -50 13 -78 87 -186 105
-154 143 -253 123 -327 -6 -22 -14 -47 -17 -56 -4 -11 0 -14 18 -11 19 2 25
11 31 43 24 135 -17 270 -130 428 -19 26 -36 64 -39 86 -4 32 -1 43 25 72 27
31 35 34 99 37 77 5 107 -6 167 -59 40 -35 120 -139 171 -224 53 -89 42 -47
-21 76 -70 136 -124 197 -215 243 -51 26 -64 36 -51 40 29 10 122 -12 184 -42
31 -15 54 -24 52 -20 -9 14 -87 51 -139 64 -56 15 -95 16 -174 3z m-53 -345
c43 -64 85 -144 96 -184 4 -14 -8 4 -26 40 -19 36 -54 97 -79 135 -59 89 -69
110 -69 132 0 10 9 0 19 -23 10 -22 37 -67 59 -100z m109 -236 c-3 -8 -6 -5
-6 6 -1 11 2 17 5 13 3 -3 4 -12 1 -19z"/>
<path d="M5088 719 c-31 -31 -51 -97 -42 -136 9 -36 62 -153 69 -153 6 0 0
107 -11 168 -4 28 -2 51 5 66 7 12 11 36 9 52 l-3 29 -27 -26z m17 -189 c3
-15 -2 -10 -14 15 -11 22 -20 56 -20 75 0 33 1 32 14 -15 8 -27 17 -61 20 -75z"/>
<path d="M2533 620 c0 -36 2 -50 4 -32 2 17 2 47 0 65 -2 17 -4 3 -4 -33z"/>
<path d="M543 653 c-22 -8 -14 -48 13 -74 37 -34 74 -90 128 -194 52 -99 81
-136 101 -129 16 7 5 59 -34 161 -31 79 -93 167 -144 206 -43 32 -50 35 -64
30z"/>
<path d="M971 619 c-1 -11 51 -122 85 -179 33 -57 110 -150 124 -150 4 0 -8
16 -26 36 -50 52 -93 118 -141 214 -23 47 -42 82 -42 79z"/>
<path d="M4748 607 c-14 -32 -9 -151 8 -208 9 -29 35 -92 59 -139 36 -73 78
-176 100 -244 3 -10 8 -16 11 -14 10 10 -28 122 -86 253 -31 72 -61 139 -65
150 -4 11 -11 65 -14 120 -4 60 -9 93 -13 82z"/>
<path d="M2249 507 c-62 -59 -105 -88 -235 -157 -230 -122 -277 -176 -260
-295 9 -57 26 -69 23 -16 -1 21 -5 37 -9 34 -20 -12 -5 49 22 89 41 61 86 94
194 141 50 21 121 59 157 84 68 45 189 162 189 182 0 6 -1 11 -2 11 -2 -1 -37
-33 -79 -73z"/>
<path d="M227 553 c-19 -19 -5 -66 33 -107 22 -24 47 -63 56 -87 13 -37 32
-222 34 -332 0 -18 4 -26 11 -21 8 4 9 35 4 99 -8 113 1 179 29 212 21 24 23
24 56 10 38 -16 69 -43 113 -97 l29 -35 -7 30 c-19 86 -100 195 -144 195 -10
0 -30 -10 -45 -21 -15 -12 -29 -19 -31 -17 -3 2 -8 22 -13 43 -6 29 -17 46
-42 63 -48 32 -48 42 -3 42 90 0 208 -95 264 -211 15 -30 44 -114 65 -186 23
-79 44 -133 51 -133 19 0 16 16 -21 144 -54 187 -156 322 -291 387 -56 27
-132 39 -148 22z"/>
<path d="M1667 500 c-97 -62 -165 -130 -216 -218 -47 -80 -71 -157 -71 -229 0
-76 16 -66 23 15 8 87 36 167 85 239 47 69 137 156 210 202 45 28 60 41 50 41
-2 0 -38 -23 -81 -50z"/>
<path d="M2516 516 c-20 -100 -105 -232 -203 -313 -33 -26 -105 -82 -161 -123
-90 -66 -99 -75 -76 -78 18 -2 31 3 41 18 8 11 63 58 121 103 135 103 183 153
226 230 39 71 69 159 64 184 -2 10 -7 1 -12 -21z"/>
<path d="M11 500 c0 -8 4 -22 9 -30 12 -18 12 -2 0 25 -6 13 -9 15 -9 5z"/>
<path d="M1538 493 c7 -3 16 -2 19 1 4 3 -2 6 -13 5 -11 0 -14 -3 -6 -6z"/>
<path d="M2947 413 c-7 -117 -29 -176 -86 -233 -50 -49 -108 -80 -208 -111
-34 -11 -75 -31 -90 -44 l-28 -24 37 -1 c27 0 41 6 50 20 7 11 44 32 83 47 86
33 109 46 163 97 56 53 82 124 89 244 3 50 4 92 1 92 -3 0 -8 -39 -11 -87z"/>
<path d="M1417 483 c18 -2 50 -2 70 0 21 2 7 4 -32 4 -38 0 -55 -2 -38 -4z"/>
<path d="M30 445 c0 -5 30 -59 66 -120 50 -82 68 -122 71 -155 3 -39 2 -43 -9
-27 -34 49 -36 48 -19 -3 22 -65 21 -62 21 -100 0 -37 31 -42 54 -8 33 47 8
136 -67 241 -25 35 -61 90 -81 123 -20 32 -36 55 -36 49z m187 -367 c-3 -7 -5
-2 -5 12 0 14 2 19 5 13 2 -7 2 -19 0 -25z"/>
<path d="M851 374 c0 -11 3 -14 6 -6 3 7 2 16 -1 19 -3 4 -6 -2 -5 -13z"/>
<path d="M5106 367 c3 -10 9 -15 12 -12 3 3 0 11 -7 18 -10 9 -11 8 -5 -6z"/>
<path d="M861 334 c0 -11 3 -14 6 -6 3 7 2 16 -1 19 -3 4 -6 -2 -5 -13z"/>
<path d="M680 324 c0 -6 16 -50 35 -97 19 -47 44 -118 55 -156 l22 -71 38 0
37 0 -24 102 c-13 56 -26 104 -29 107 -2 3 -10 -1 -16 -7 -28 -28 -49 -13 -83
61 -19 39 -34 67 -35 61z"/>
<path d="M2669 303 c-13 -16 -12 -17 4 -4 16 13 21 21 13 21 -2 0 -10 -8 -17
-17z"/>
<path d="M870 298 c0 -16 57 -214 80 -272 6 -16 13 -27 15 -24 3 3 -2 22 -10
42 -9 21 -31 90 -50 154 -19 65 -34 109 -35 100z"/>
<path d="M4700 269 c0 -28 54 -272 58 -261 4 12 -46 263 -54 271 -2 2 -4 -2
-4 -10z"/>
<path d="M1000 172 c21 -53 42 -114 45 -134 4 -21 11 -38 16 -38 15 0 -71 253
-91 265 -4 2 9 -39 30 -93z"/>
<path d="M2605 229 c-22 -22 -62 -56 -90 -74 -27 -18 -79 -60 -115 -93 l-65
-61 32 -1 c34 0 39 5 232 213 61 65 65 78 6 16z"/>
<path d="M1224 246 c-10 -25 0 -48 29 -70 21 -16 32 -18 45 -10 21 13 28 60
11 80 -15 19 -78 19 -85 0z"/>
<path d="M3 184 c3 -33 15 -87 27 -121 23 -63 23 -63 63 -63 l40 0 -7 41 c-11
66 -70 168 -113 193 -13 7 -14 -1 -10 -50z"/>
<path d="M2148 189 c-21 -11 -38 -22 -38 -24 0 -5 79 32 89 41 12 11 -18 1
-51 -17z"/>
<path d="M1949 163 c-13 -16 -12 -17 4 -4 16 13 21 21 13 21 -2 0 -10 -8 -17
-17z"/>
<path d="M410 120 c-6 -11 -14 -43 -17 -70 l-6 -50 57 0 c31 0 56 2 56 5 0 12
-65 135 -72 135 -4 0 -12 -9 -18 -20z"/>
<path d="M1165 93 c15 -24 30 -43 32 -43 7 0 -31 61 -46 73 -8 7 -2 -7 14 -30z"/>
<path d="M2089 103 l-24 -28 28 24 c15 14 27 26 27 28 0 8 -8 1 -31 -24z"/>
<path d="M1266 90 c10 -38 32 -87 32 -70 0 8 -8 33 -19 55 -10 22 -16 29 -13
15z"/>
<path d="M1438 56 l-15 -56 33 0 33 0 -14 43 c-7 23 -15 48 -17 56 -2 8 -11
-12 -20 -43z"/>
<path d="M1876 79 c-14 -71 -10 -79 37 -79 l43 0 -25 55 c-29 62 -46 69 -55
24z"/>
<path d="M3549 82 c-13 -11 -46 -32 -73 -47 -27 -16 -44 -31 -37 -33 14 -5
128 67 136 86 6 16 2 15 -26 -6z"/>
<path d="M3993 50 c0 -30 2 -43 4 -28 2 16 2 40 0 55 -2 16 -4 3 -4 -27z"/>
<path d="M4446 70 c8 -43 14 -51 14 -19 0 13 -5 31 -10 39 -7 11 -8 5 -4 -20z"/>
<path d="M575 40 c4 -14 12 -29 17 -35 7 -7 8 -2 3 15 -4 14 -12 30 -17 35 -7
7 -8 2 -3 -15z"/>
<path d="M7 43 c-8 -13 2 -43 14 -43 10 0 10 8 0 34 -5 12 -10 16 -14 9z"/>
</g>
</svg>