<svg xmlns="http://www.w3.org/2000/svg" viewBox="0 0 200 100" preserveAspectRatio="none">
  <style>
    .line {
      stroke: white;
      stroke-width: 0.2;
      stroke-linecap: round;
      stroke-dasharray: 100; /* Total length of the line */
      stroke-dashoffset: 100; /* Start fully offset (hidden) */
      animation: drawErase 8s ease-in-out infinite;
    }

    .major-line {
      stroke-width: 1.5; /* Thicker major gridlines */
    }

    /* Animation for drawing and erasing with direction */
    @keyframes drawErase {
      0% {
        stroke-dashoffset: 100; /* Fully hidden */
      }
      12.5% {
        stroke-dashoffset: 0; /* Fully drawn */
      }
      75% {
        stroke-dashoffset: 0; /* Pause for 5 seconds */
      }
      87.5% {
        stroke-dashoffset: -100; /* Erase in the opposite direction */
      }
      100% {
        stroke-dashoffset: -100; /* Fully erased */
      }
    }
  </style>

  <!-- Background -->
  <rect width="100%" height="100%" fill="rgb(25, 25, 25)" />

  <!-- Minor Gridlines -->
  <g class="minor-lines">
    <!-- Vertical minor gridlines -->
    <line class="line" x1="61.111" y1="0" x2="61.111" y2="100" />
    <line class="line" x1="72.222" y1="0" x2="72.222" y2="100" />
    <line class="line" x1="94.444" y1="0" x2="94.444" y2="100" />
    <line class="line" x1="105.555" y1="0" x2="105.555" y2="100" />
    <line class="line" x1="127.778" y1="0" x2="127.778" y2="100" />
    <line class="line" x1="138.889" y1="0" x2="138.889" y2="100" />

    <!-- Horizontal minor gridlines -->
    <line class="line" x1="50" y1="11.111" x2="150" y2="11.111" />
    <line class="line" x1="50" y1="22.222" x2="150" y2="22.222" />
    <line class="line" x1="50" y1="44.444" x2="150" y2="44.444" />
    <line class="line" x1="50" y1="55.555" x2="150" y2="55.555" />
    <line class="line" x1="50" y1="77.777" x2="150" y2="77.777" />
    <line class="line" x1="50" y1="88.888" x2="150" y2="88.888" />
  </g>

  <!-- Major Gridlines -->
  <g class="major-lines">
    <!-- Vertical major gridlines -->
    <line class="line major-line" x1="83.333" y1="0" x2="83.333" y2="100" />
    <line class="line major-line" x1="116.666" y1="0" x2="116.666" y2="100" />

    <!-- Horizontal major gridlines -->
    <line class="line major-line" x1="50" y1="33.333" x2="150" y2="33.333" />
    <line class="line major-line" x1="50" y1="66.666" x2="150" y2="66.666" />
  </g>
</svg>
