<?xml version="1.0" standalone="no"?>
<!DOCTYPE svg PUBLIC "-//W3C//DTD SVG 20010904//EN"
 "http://www.w3.org/TR/2001/REC-SVG-20010904/DTD/svg10.dtd">
<svg version="1.0" xmlns="http://www.w3.org/2000/svg"
 width="512.000000pt" height="512.000000pt" viewBox="0 0 512.000000 512.000000"
 preserveAspectRatio="xMidYMid meet">
<metadata>
Created by potrace 1.16, written by Peter Selinger 2001-2019
</metadata>
<g transform="translate(0.000000,512.000000) scale(0.100000,-0.100000)"
fill="#FFFFFF" stroke="none">
<path d="M2145 4445 c-242 -57 -521 -182 -705 -316 -76 -55 -29 -43 60 16 218
144 474 247 743 300 15 3 27 10 27 15 0 13 -9 12 -125 -15z"/>
<path d="M2336 4399 c-104 -11 -223 -35 -320 -66 -83 -26 -312 -125 -329 -142
-25 -25 7 -19 70 13 228 114 424 167 680 182 67 4 120 11 117 15 -6 11 -109
10 -218 -2z"/>
<path d="M2684 4389 c-2 -5 5 -11 18 -13 13 -3 59 -13 103 -22 261 -54 518
-178 750 -359 120 -95 169 -148 169 -187 1 -38 32 -51 52 -23 14 19 3 55 -16
55 -5 0 -29 21 -52 46 -143 155 -437 341 -671 423 -148 52 -343 96 -353 80z"/>
<path d="M3882 4388 c-28 -28 -1 -75 37 -63 25 8 34 31 21 56 -12 21 -40 25
-58 7z"/>
<path d="M2240 4313 c-160 -28 -407 -120 -529 -197 l-44 -28 -38 44 c-38 43
-49 45 -28 6 9 -17 8 -23 -5 -30 -27 -15 -19 -30 13 -23 19 4 33 1 43 -9 13
-13 18 -12 44 5 51 35 204 109 288 140 119 44 268 79 374 86 50 3 92 10 92 15
0 12 -115 8 -210 -9z"/>
<path d="M2670 4271 c0 -4 31 -13 69 -20 97 -15 263 -72 374 -125 111 -54 227
-127 210 -133 -7 -2 -22 1 -33 7 -31 17 -39 2 -11 -21 20 -17 22 -21 10 -37
-7 -9 -15 -19 -16 -21 -2 -2 -11 3 -21 12 -20 19 -217 117 -274 138 -25 8 -38
19 -38 31 0 10 3 18 6 18 3 0 62 -27 131 -60 128 -61 150 -69 137 -49 -8 13
-202 109 -221 109 -7 0 -17 10 -22 23 -8 20 -27 28 -138 55 -70 18 -138 32
-150 32 -33 0 -28 -20 5 -20 15 -1 74 -13 132 -28 l105 -28 -3 -29 c-2 -17 -5
-31 -7 -33 -2 -2 -37 6 -77 17 -83 23 -98 25 -98 12 0 -5 15 -12 33 -16 125
-25 305 -94 424 -163 l62 -36 -30 -33 c-16 -19 -26 -39 -23 -45 5 -7 18 1 36
23 34 40 108 149 108 159 0 9 -136 88 -239 140 -153 76 -441 156 -441 121z"/>
<path d="M2285 4204 c-237 -40 -486 -146 -684 -291 -197 -145 -413 -399 -521
-614 -43 -84 -52 -109 -39 -109 5 0 22 26 36 58 98 215 319 487 515 635 224
168 507 283 765 312 35 4 60 11 57 16 -7 11 -30 10 -129 -7z"/>
<path d="M2450 4210 c0 -5 14 -10 30 -10 17 0 30 5 30 10 0 6 -13 10 -30 10
-16 0 -30 -4 -30 -10z"/>
<path d="M2495 4149 c-8 -12 14 -31 30 -26 6 2 10 10 10 18 0 17 -31 24 -40 8z"/>
<path d="M2490 4095 c0 -8 9 -15 20 -15 24 0 27 15 4 24 -22 9 -24 8 -24 -9z"/>
<path d="M1484 4075 c-10 -25 4 -45 30 -45 27 0 42 26 25 46 -15 19 -48 18
-55 -1z"/>
<path d="M2110 4063 c-149 -49 -334 -133 -380 -172 -39 -32 -8 -25 57 13 75
44 230 110 311 132 34 10 62 21 62 26 0 9 -26 10 -50 1z"/>
<path d="M3853 4060 c-26 -10 -43 -39 -43 -73 0 -29 39 -67 69 -67 29 0 71 43
71 73 0 48 -53 84 -97 67z m55 -26 c30 -21 29 -59 -3 -80 -23 -15 -27 -15 -50
0 -32 21 -33 59 -3 80 12 9 25 16 28 16 3 0 16 -7 28 -16z"/>
<path d="M2276 4039 c-60 -10 -112 -21 -114 -24 -16 -15 17 -16 85 -2 43 9
104 19 136 23 31 3 57 10 57 15 0 13 -40 10 -164 -12z"/>
<path d="M2952 4018 c-22 -22 -14 -57 13 -64 45 -11 71 29 39 60 -19 19 -36
20 -52 4z"/>
<path d="M2026 3970 c-157 -59 -297 -138 -409 -231 -32 -27 -62 -49 -66 -49
-4 0 -18 11 -31 25 -13 14 -27 25 -32 25 -12 0 -117 -100 -130 -123 -7 -15 -5
-24 13 -43 l23 -24 53 56 c49 52 63 74 46 74 -4 0 -31 -23 -60 -52 -29 -29
-53 -46 -53 -39 0 17 89 121 105 121 6 0 20 -9 30 -20 21 -23 29 -10 -76 -126
-30 -33 -82 -102 -117 -154 -68 -103 -177 -308 -168 -317 8 -8 4 -14 71 112
89 170 188 307 305 425 85 85 241 210 263 210 3 0 8 -7 11 -17 4 -10 -3 -26
-21 -45 -36 -37 -23 -35 46 7 132 81 337 154 509 179 102 15 129 26 63 26
-111 0 -346 -67 -492 -141 -77 -38 -89 -40 -89 -9 0 19 128 82 243 120 37 12
67 26 67 31 0 14 -19 10 -104 -21z"/>
<path d="M3970 3985 c-18 -22 -4 -64 24 -71 50 -12 88 40 54 74 -17 17 -63 15
-78 -3z"/>
<path d="M3077 3953 c-23 -22 18 -78 49 -66 19 7 28 42 14 58 -13 15 -51 20
-63 8z"/>
<path d="M2320 3885 c-173 -33 -368 -114 -517 -217 -263 -180 -477 -514 -550
-858 -26 -127 -24 -355 6 -477 28 -114 70 -225 122 -322 37 -69 39 -75 23 -92
-15 -17 -13 -22 31 -87 132 -198 313 -353 557 -477 164 -85 311 -126 481 -138
42 -2 51 -20 12 -25 -23 -3 -25 -7 -25 -52 0 -48 1 -49 34 -56 19 -3 39 -3 45
1 7 4 11 89 11 253 l0 248 41 -4 c108 -11 307 46 452 128 l90 52 23 -29 c13
-15 23 -30 24 -33 0 -8 -109 -75 -177 -109 -131 -65 -289 -111 -383 -111 -39
0 -40 -1 -40 -34 0 -19 3 -37 8 -39 14 -10 188 24 274 53 107 36 181 73 273
137 55 38 70 54 71 74 0 18 23 47 83 104 109 104 170 187 236 320 61 123 100
256 111 375 l7 80 43 0 c24 0 44 5 44 10 0 6 -20 10 -45 10 l-45 0 0 54 c0
234 -129 521 -329 729 l-65 67 23 30 c12 17 19 36 15 42 -8 13 -67 66 -97 87
-40 28 -13 -15 35 -57 l47 -40 -35 -47 c-34 -44 -40 -71 -11 -46 32 26 208
-199 297 -378 38 -76 90 -245 90 -292 0 -25 -47 -26 -53 -1 -3 9 -5 -11 -6
-45 l-1 -63 36 0 37 0 -8 -102 c-19 -271 -144 -533 -345 -722 l-73 -69 -28 34
-27 34 91 95 c51 52 110 121 131 153 54 82 110 207 140 309 27 95 52 255 41
266 -5 6 -125 4 -132 -2 -1 0 -4 -13 -8 -29 l-7 -27 62 0 62 0 -7 -57 c-4 -32
-8 -59 -10 -61 -2 -2 -34 5 -72 16 -67 19 -68 20 -65 51 2 26 -1 32 -15 29
-16 -3 -40 -64 -29 -75 3 -3 40 -15 83 -28 80 -23 96 -39 74 -74 -8 -12 -24
-9 -100 17 -49 18 -92 32 -96 32 -3 0 -26 -45 -51 -100 -26 -55 -52 -100 -58
-100 -6 1 -24 11 -40 24 l-29 24 41 84 c42 84 82 212 82 258 0 32 -36 105 -53
105 -7 0 -16 -31 -23 -82 -14 -96 -27 -139 -65 -213 -42 -82 -73 -117 -91
-102 -12 9 -25 2 -70 -43 -84 -80 -226 -145 -320 -145 -39 0 -45 -9 -32 -44 4
-12 20 -16 53 -16 46 0 48 -1 59 -37 8 -25 8 -41 2 -47 -6 -6 -61 -10 -123
-10 -120 0 -190 15 -279 60 l-49 25 26 42 c29 48 33 49 142 21 50 -13 73 -24
77 -36 2 -10 14 -18 25 -18 17 0 21 6 21 35 0 35 0 35 -43 35 -138 0 -325 116
-418 259 -18 28 -33 51 -34 51 -2 0 -28 -11 -59 -25 -31 -14 -60 -25 -65 -25
-5 0 -15 19 -24 43 -14 38 -23 70 -42 160 -5 23 -10 27 -40 27 -27 0 -35 -4
-35 -18 0 -49 44 -182 90 -270 46 -89 48 -98 33 -110 -28 -21 -43 -11 -84 58
-46 75 -85 190 -95 278 -6 57 -15 74 -28 54 -7 -12 20 -151 43 -217 12 -33 42
-95 67 -139 l46 -79 -22 -21 -21 -21 -19 25 c-26 33 -65 112 -89 180 -14 39
-25 55 -38 55 -14 0 -22 15 -34 65 -27 108 -31 160 -14 160 12 0 15 13 15 58
0 31 4 63 9 71 7 11 46 13 230 6 198 -6 221 -5 221 9 0 14 -22 16 -180 16
l-180 0 0 23 c1 84 74 284 136 368 36 48 43 63 33 75 -22 27 -39 14 -95 -71
-46 -68 -54 -87 -45 -99 10 -11 8 -23 -7 -53 -23 -46 -58 -153 -68 -205 -3
-21 -10 -38 -15 -38 -5 0 -9 3 -9 8 1 25 34 144 56 199 20 50 23 68 14 76 -9
9 -15 7 -26 -8 -19 -25 -70 -186 -79 -247 -6 -38 -11 -48 -26 -48 -11 0 -19 6
-19 13 0 25 32 144 55 208 41 113 58 144 82 144 16 0 35 21 72 78 28 43 57 77
64 75 7 -2 40 25 71 60 32 34 71 71 86 82 l28 20 26 -44 c14 -25 26 -47 26
-50 0 -17 -29 -2 -55 28 l-30 34 -40 -47 c-28 -33 -31 -38 -9 -18 16 15 35 27
42 27 6 0 23 -16 38 -36 l27 -35 -44 -47 c-25 -26 -54 -58 -64 -71 l-20 -23
41 -37 42 -36 -41 -72 c-22 -40 -46 -73 -52 -73 -7 0 -31 14 -54 30 -23 17
-46 28 -51 25 -10 -6 -30 -95 -30 -135 l0 -30 90 -2 c50 -1 97 -2 106 -2 11
-1 21 13 29 40 59 200 288 393 467 394 63 0 68 5 68 76 0 50 3 64 15 64 12 0
15 -13 15 -58 l0 -58 76 -12 c99 -16 189 -59 262 -127 43 -39 64 -53 79 -49
41 11 126 -132 159 -268 15 -60 20 -68 41 -68 13 0 26 7 29 15 4 9 19 15 36
15 29 0 30 0 23 42 -12 67 -42 145 -91 237 -28 51 -42 87 -35 89 22 7 10 33
-48 94 l-59 63 64 79 c35 42 64 81 64 84 -1 11 -119 97 -180 130 -60 33 -196
82 -229 82 -40 0 -22 -27 27 -40 74 -18 187 -66 262 -111 94 -56 97 -60 62
-100 l-28 -32 -48 37 c-60 45 -209 119 -233 114 -11 -2 -25 -23 -37 -56 -10
-28 -22 -52 -27 -52 -13 0 -11 22 6 70 25 71 22 77 -42 84 -32 4 -73 10 -90
13 -25 4 -33 2 -33 -10 0 -12 16 -17 65 -22 69 -8 70 -9 59 -64 -5 -23 -11
-30 -23 -27 -9 2 -37 7 -63 11 l-48 6 0 -40 c0 -26 -5 -41 -12 -41 -13 0 -16
89 -10 353 l2 107 33 0 c46 0 65 -18 69 -65 l3 -40 120 -30 c115 -30 235 -82
326 -142 21 -14 44 -23 51 -21 15 5 -116 94 -162 110 -22 7 -30 16 -30 34 0
30 -35 47 -162 78 -79 18 -88 23 -88 43 0 29 6 28 122 -1 159 -40 314 -115
441 -213 60 -46 96 -51 42 -6 -124 103 -319 201 -490 244 -106 27 -394 35
-505 14z m148 -76 c3 -25 1 -26 -66 -32 -107 -10 -235 -51 -372 -120 -69 -34
-133 -61 -142 -60 -10 2 -18 -3 -18 -10 0 -6 -24 -28 -52 -47 -29 -19 -83 -66
-120 -103 -100 -100 -221 -278 -199 -292 5 -3 -4 -34 -20 -70 -47 -105 -79
-231 -86 -338 -6 -92 -8 -100 -31 -110 -24 -11 -24 -13 -17 -97 16 -204 60
-387 116 -487 60 -109 242 -329 261 -317 5 3 -16 32 -45 64 -179 193 -319 545
-305 765 3 55 13 62 73 51 l32 -6 2 -88 c3 -164 63 -409 103 -420 10 -2 20
-12 23 -22 7 -21 45 -57 45 -42 0 6 -9 26 -19 44 -34 60 -85 208 -75 218 5 5
24 12 40 16 29 5 32 3 43 -27 11 -32 4 -48 -21 -49 -5 0 -8 -11 -8 -25 0 -20
5 -25 25 -25 20 0 25 5 25 24 0 13 7 29 15 36 18 15 17 15 38 -26 16 -31 16
-32 -3 -27 -14 4 -20 0 -20 -10 0 -20 16 -31 25 -17 13 21 27 8 51 -47 34 -77
134 -172 252 -242 51 -30 92 -59 92 -65 -1 -6 -16 -29 -34 -50 l-33 -39 -47
32 c-29 20 -46 27 -46 19 0 -26 223 -143 258 -136 12 2 23 37 44 133 15 71 25
132 20 136 -4 4 -23 14 -43 22 l-36 15 -24 -49 c-13 -27 -28 -49 -32 -49 -39
-1 -308 223 -307 255 0 5 24 25 53 43 29 18 59 38 69 44 13 10 26 2 75 -48 33
-32 84 -74 115 -93 l55 -35 -19 -33 -20 -33 -31 17 c-18 9 -51 29 -75 45 l-42
29 20 26 c26 34 19 40 -19 17 l-31 -18 -35 34 c-23 22 -35 29 -35 19 0 -17
108 -109 192 -163 31 -20 59 -36 62 -36 2 0 14 15 26 34 l21 35 49 -21 c28
-11 50 -24 50 -28 0 -35 -62 -305 -74 -322 -9 -12 -16 -30 -16 -40 0 -28 -17
-30 -72 -7 -120 50 -211 113 -330 228 -65 63 -118 119 -118 125 0 5 -9 19 -19
30 -30 32 -29 43 8 69 l34 24 77 -76 c89 -89 187 -167 198 -157 4 5 -15 26
-43 49 -27 22 -89 80 -137 129 l-88 89 -43 -30 c-75 -51 -75 -50 -8 -134 215
-271 472 -419 784 -452 47 -5 57 -10 57 -25 0 -40 -10 -48 -53 -43 -206 23
-358 76 -559 195 -60 36 -67 42 -62 66 4 22 -3 33 -37 61 l-41 34 -21 -22 -22
-22 43 -39 c146 -131 423 -257 617 -281 132 -17 130 -16 130 -79 l0 -55 -35
-3 c-101 -10 -285 39 -447 119 -233 115 -461 302 -576 474 -43 65 -45 71 -28
83 16 11 13 21 -46 140 -151 305 -171 588 -66 907 133 404 432 715 810 846 72
25 93 24 93 -1 0 -24 7 -25 47 -5 33 16 131 34 173 31 19 -1 26 -7 28 -27z
m42 -68 c0 -28 -3 -30 -47 -36 -169 -22 -323 -59 -330 -80 -1 -6 1 -16 6 -24
8 -12 24 -9 102 13 99 29 269 47 269 29 0 -6 -34 -13 -76 -17 -165 -15 -343
-78 -475 -167 -84 -56 -209 -176 -274 -264 -104 -140 -171 -314 -182 -475 -3
-47 -10 -87 -14 -91 -5 -3 -25 -3 -44 -1 l-35 4 0 62 c0 84 31 226 70 318 37
90 142 252 230 356 176 207 419 346 678 386 126 20 122 20 122 -13z m0 -186
c0 -24 -2 -25 -67 -25 -38 0 -95 -7 -128 -14 -33 -8 -63 -12 -68 -9 -7 4 -1
-34 7 -44 1 -1 24 4 51 12 69 21 185 31 185 16 0 -6 -16 -11 -37 -11 -21 0
-75 -9 -121 -20 -46 -11 -85 -20 -87 -20 -3 0 -35 89 -32 91 1 0 9 2 17 4 8 1
40 10 70 18 63 18 96 23 163 26 44 1 47 -1 47 -24z m407 -73 c32 -17 68 -38
80 -48 l23 -19 -35 -54 c-19 -30 -36 -59 -38 -64 -2 -6 -42 9 -90 34 -98 49
-95 43 -61 151 17 54 14 54 121 0z m-718 16 c24 -65 25 -63 -37 -100 l-59 -35
-27 45 c-15 24 -26 46 -24 47 16 13 116 65 126 65 7 0 16 -10 21 -22z m169
-120 c4 -3 37 -3 75 1 l67 7 0 -46 0 -47 -77 -15 c-48 -10 -82 -12 -88 -6 -9
8 3 22 28 30 4 2 -1 25 -13 51 -12 26 -18 53 -13 60 5 8 9 6 11 -8 2 -11 7
-23 10 -27z m-58 13 c0 -4 -19 -16 -42 -25 -44 -16 -160 -89 -159 -99 0 -4
-12 -19 -27 -34 -15 -15 -42 -46 -59 -67 -18 -22 -35 -37 -39 -33 -3 3 19 32
49 64 40 42 53 63 47 73 -6 9 -2 17 13 25 12 7 60 33 107 58 84 46 110 55 110
38z m745 -1 c4 -6 -9 -34 -29 -63 -20 -29 -36 -57 -36 -62 0 -5 26 -34 58 -65
81 -77 109 -129 114 -212 l4 -67 -31 57 c-17 31 -42 74 -57 95 -16 24 -25 49
-23 65 3 21 -8 38 -46 78 l-50 51 36 66 c36 66 48 77 60 57z m-374 -20 c15 0
19 -7 19 -35 0 -38 -7 -41 -69 -29 -28 6 -31 10 -31 42 0 33 1 34 31 28 17 -3
40 -6 50 -6z m132 -51 c94 -47 231 -159 214 -175 -4 -4 -16 5 -27 19 -31 40
-138 117 -207 149 -35 17 -63 32 -63 34 0 10 26 2 83 -27z m-500 14 c4 -3 -12
-15 -36 -26 -73 -33 -87 -37 -87 -26 0 5 24 21 53 34 57 27 61 28 70 18z m24
-68 c1 -5 -27 -25 -63 -44 -123 -63 -239 -196 -283 -322 l-19 -54 -77 -3 -77
-3 7 33 c10 48 16 50 68 31 25 -9 48 -15 50 -13 1 3 20 40 41 83 49 102 144
204 246 263 72 43 100 50 107 29z m-757 -697 c1 -24 7 -74 14 -113 10 -52 11
-72 2 -77 -7 -5 -12 4 -14 27 -3 30 -7 35 -28 35 -20 0 -24 5 -24 33 0 17 -3
56 -6 85 l-7 52 32 0 c30 0 31 -2 31 -42z m496 -244 c32 -41 59 -79 59 -83 0
-4 -16 -22 -36 -39 l-37 -32 -37 41 c-38 43 -95 127 -95 141 0 7 64 42 86 48
0 0 27 -34 60 -76z m1383 -17 c8 -27 -8 -31 -58 -13 -29 10 -53 17 -55 15 -2
-2 -18 -32 -35 -66 -17 -35 -35 -63 -40 -63 -5 0 -19 8 -30 18 l-22 17 29 65
c16 36 32 72 35 82 5 14 15 13 90 -15 46 -18 85 -35 86 -40z m-423 -80 c-3
-18 -5 -33 -5 -35 -2 -8 -41 20 -41 30 0 17 31 48 41 42 5 -3 7 -19 5 -37z
m86 -18 l40 -32 -68 -68 c-64 -64 -69 -68 -86 -52 -20 18 -36 14 -107 -31
l-40 -25 17 -43 c20 -55 17 -53 46 -34 28 18 46 21 46 8 0 -10 -98 -66 -120
-69 -8 0 -29 -4 -47 -8 -40 -9 -54 11 -81 120 -11 44 -22 86 -24 93 -2 8 13
19 37 27 52 19 49 20 68 -20 10 -22 24 -35 36 -35 42 0 231 155 231 190 0 16
9 12 52 -21z m-864 -98 c-12 -20 -25 -40 -29 -45 -8 -9 -58 20 -114 68 l-30
25 39 34 39 34 58 -40 58 -40 -21 -36z m1057 41 c-20 -39 -46 -79 -57 -89 -12
-10 -19 -13 -17 -8 12 29 102 175 106 171 3 -2 -12 -36 -32 -74z m105 43 c0
-12 -65 -133 -89 -165 -52 -70 -104 -130 -114 -130 -6 0 -25 11 -43 25 -18 14
-36 25 -39 25 -4 0 -24 -13 -45 -30 l-38 -30 -26 41 c-15 22 -26 44 -24 49 2
4 27 27 57 51 91 74 82 71 118 39 l33 -30 -30 -34 c-17 -18 -30 -36 -30 -39 0
-2 11 -12 25 -21 24 -16 26 -16 51 11 13 15 57 76 96 136 40 59 78 107 85 107
7 0 13 -2 13 -5z m-833 -313 c95 3 102 2 107 -17 14 -50 10 -53 -71 -61 -69
-6 -248 7 -260 20 -3 3 0 20 6 39 l12 34 52 -9 c29 -6 98 -8 154 -6z m503 -64
l23 -31 -29 -24 c-50 -40 -205 -112 -289 -133 -44 -12 -117 -24 -162 -27 l-83
-6 0 42 0 41 43 0 c119 0 359 82 437 148 14 12 28 21 31 22 3 0 16 -14 29 -32z
m-242 -28 c7 -20 7 -32 1 -36 -14 -8 -18 -3 -29 35 -12 42 14 43 28 1z m-51
-15 c6 -20 7 -35 2 -35 -5 0 -12 -1 -16 -2 -9 -4 -24 53 -17 64 10 16 21 7 31
-27z m-282 9 c66 -3 143 -2 172 3 l51 10 7 -35 c3 -19 5 -35 3 -37 -6 -6 -159
-25 -199 -25 l-39 0 0 -110 0 -110 -46 0 c-50 0 -221 37 -229 49 -2 4 0 24 6
44 10 36 11 36 33 22 22 -15 156 -45 197 -45 18 0 20 6 17 73 l-3 72 -55 6
c-30 3 -72 9 -93 13 -37 7 -38 8 -31 39 10 47 13 49 53 43 20 -3 90 -9 156
-12z m-345 -64 c30 -16 40 -26 40 -45 0 -14 -2 -25 -4 -25 -5 0 -120 51 -125
56 -7 7 21 34 36 34 7 0 32 -9 53 -20z"/>
<path d="M1624 2135 c-7 -18 3 -35 21 -35 15 0 24 19 18 38 -6 17 -32 15 -39
-3z"/>
<path d="M2360 1296 c0 -17 27 -29 35 -16 4 6 3 15 0 20 -9 15 -35 12 -35 -4z"/>
<path d="M2807 3440 c-4 -16 7 -27 60 -56 53 -30 67 -34 74 -23 13 21 13 21
-51 62 -69 43 -76 44 -83 17z"/>
<path d="M2772 1984 c-47 -33 -14 -117 42 -107 27 6 56 37 56 61 0 17 -45 62
-62 62 -8 0 -24 -7 -36 -16z"/>
<path d="M1113 3818 c-76 -82 -223 -288 -204 -288 5 0 39 42 75 93 36 51 93
126 127 166 34 40 59 74 57 77 -3 2 -27 -19 -55 -48z"/>
<path d="M3560 3863 c0 -13 129 -138 135 -131 4 3 -8 22 -25 42 -38 43 -110
101 -110 89z"/>
<path d="M3340 3856 c0 -3 65 -70 144 -150 129 -131 145 -144 161 -132 17 12
13 18 -51 82 -38 38 -108 100 -155 137 -81 62 -99 74 -99 63z"/>
<path d="M1263 3796 c-23 -17 -46 -43 -52 -58 -12 -32 -9 -34 28 -12 22 13 77
92 69 99 -2 2 -22 -11 -45 -29z m-3 -30 c0 -2 -8 -10 -17 -17 -16 -13 -17 -12
-4 4 13 16 21 21 21 13z"/>
<path d="M4130 3772 c0 -6 26 -47 58 -91 161 -226 290 -530 333 -785 14 -82
36 -108 24 -28 -24 161 -102 396 -191 573 -75 151 -224 370 -224 331z"/>
<path d="M3844 3665 c-7 -18 12 -45 31 -45 18 0 24 21 13 43 -11 21 -37 22
-44 2z"/>
<path d="M1142 3647 c-7 -8 -7 -18 -2 -27 8 -13 11 -13 26 2 9 9 13 21 10 27
-9 15 -21 14 -34 -2z"/>
<path d="M3431 3587 c-14 -17 3 -41 23 -34 9 4 16 13 16 21 0 19 -26 28 -39
13z"/>
<path d="M1243 3463 c-84 -128 -159 -270 -148 -281 4 -4 9 -2 12 4 2 5 30 59
63 118 74 133 147 236 166 236 17 0 17 0 -42 -85 -49 -70 -134 -220 -134 -235
0 -25 18 -4 54 63 21 39 66 112 98 161 56 84 58 89 42 107 -9 11 -22 19 -29
19 -6 0 -43 -48 -82 -107z"/>
<path d="M3960 3550 c0 -5 17 -32 38 -60 70 -93 173 -314 221 -478 92 -308 87
-714 -13 -1027 -24 -75 -26 -100 -7 -79 10 11 56 173 78 279 25 119 25 543 0
674 -24 123 -85 309 -142 429 -73 154 -175 307 -175 262z"/>
<path d="M3490 3504 c0 -3 27 -38 59 -77 150 -183 248 -384 297 -612 27 -126
25 -359 -5 -505 -57 -280 -166 -478 -379 -688 -68 -68 -122 -126 -119 -128 3
-3 39 24 80 60 238 208 389 474 443 781 23 132 23 368 -1 480 -49 232 -151
442 -303 627 -50 61 -72 80 -72 62z"/>
<path d="M756 3484 c-9 -8 -16 -19 -16 -24 0 -13 30 -40 45 -40 15 0 45 27 45
40 0 13 -30 40 -45 40 -7 0 -21 -7 -29 -16z m52 -21 c5 -17 -26 -29 -40 -15
-6 6 -7 15 -3 22 9 14 37 9 43 -7z"/>
<path d="M3358 3446 l-27 -34 38 -44 c152 -173 277 -423 311 -625 11 -71 13
-73 41 -73 35 0 36 8 13 118 -43 211 -151 438 -281 596 -13 16 -21 36 -18 44
6 16 -21 52 -39 52 -6 0 -23 -15 -38 -34z"/>
<path d="M3888 3445 c-3 -3 16 -42 43 -86 26 -45 61 -112 76 -150 27 -67 43
-86 43 -53 0 18 -111 236 -138 272 -10 13 -20 20 -24 17z"/>
<path d="M672 3367 c-29 -31 -29 -77 1 -105 29 -28 57 -28 91 -1 19 15 26 30
26 55 0 67 -73 99 -118 51z m86 -9 c7 -7 12 -27 12 -45 0 -42 -35 -63 -75 -45
-20 9 -25 19 -25 46 0 23 6 39 18 45 23 14 55 14 70 -1z"/>
<path d="M3167 3322 c-15 -16 -27 -32 -27 -36 0 -4 18 -29 41 -54 55 -63 135
-231 161 -339 12 -48 23 -90 25 -92 1 -2 9 2 17 8 12 10 15 7 18 -21 l3 -33
63 -3 62 -3 0 36 c0 47 -42 172 -86 255 -39 74 -168 242 -218 282 l-33 27 -26
-27z m164 -193 c37 -55 40 -63 25 -71 -11 -6 -15 -17 -11 -31 6 -22 6 -22 -10
-2 -31 39 -86 145 -80 155 14 22 36 7 76 -51z"/>
<path d="M4080 3294 c0 -8 5 -12 10 -9 6 4 8 11 5 16 -9 14 -15 11 -15 -7z"/>
<path d="M3834 3239 c-22 -11 -44 -48 -44 -74 0 -29 24 -64 51 -76 76 -31 142
63 87 125 -27 30 -64 39 -94 25z"/>
<path d="M943 3150 c-91 -55 -94 -185 -4 -249 84 -60 215 17 213 125 -1 107
-121 178 -209 124z"/>
<path d="M560 3096 c-29 -78 -75 -383 -60 -400 5 -4 11 11 14 35 20 164 30
224 48 297 19 82 19 121 -2 68z"/>
<path d="M4048 3104 c-47 -20 -51 -34 -32 -100 18 -62 26 -64 111 -39 68 20
79 35 64 85 -20 67 -68 85 -143 54z m107 -53 c-15 -13 -114 -43 -128 -38 -6 2
17 14 53 25 73 24 89 26 75 13z"/>
<path d="M2431 3080 c-156 -57 -271 -224 -271 -394 0 -53 3 -66 18 -70 9 -3
25 -28 35 -56 11 -31 39 -72 73 -109 180 -195 465 -156 572 77 24 53 45 202
28 202 -4 0 -25 -9 -46 -20 -49 -25 -53 -10 -5 19 19 11 35 25 35 31 0 6 -13
37 -30 70 -69 137 -197 204 -340 178 -145 -26 -260 -164 -260 -313 0 -56 -8
-65 -38 -46 -20 12 1 137 34 207 34 72 110 149 181 182 49 23 72 27 143 27 70
0 94 -4 135 -25 68 -33 150 -117 182 -185 16 -36 30 -55 38 -51 10 3 15 -15
21 -72 8 -92 -6 -175 -42 -249 -14 -30 -24 -57 -20 -60 15 -15 36 12 61 79 25
63 29 88 30 183 1 61 5 118 9 128 14 30 0 48 -28 37 -23 -8 -27 -5 -54 43 -40
71 -113 141 -181 175 -75 36 -199 42 -280 12z m23 -171 c18 -30 18 -32 1 -42
-78 -43 -133 -136 -121 -202 8 -41 -5 -65 -35 -65 -24 0 -32 34 -27 113 5 77
38 147 92 193 49 42 67 43 90 3z m233 -106 c23 -40 28 -60 28 -115 0 -58 -4
-72 -30 -109 -17 -24 -53 -57 -80 -74 -44 -27 -56 -30 -129 -30 -57 1 -91 6
-113 18 -46 24 -41 28 15 10 91 -28 213 -2 268 59 60 65 70 162 26 246 -29 57
-19 53 15 -5z"/>
<path d="M850 3050 c-8 -29 -8 -51 0 -80 8 -31 7 -57 -7 -122 -14 -65 -18
-127 -17 -283 0 -218 14 -313 73 -497 24 -73 27 -89 15 -96 -12 -7 -12 -15 2
-57 24 -72 29 -76 69 -59 19 8 40 14 47 14 7 0 32 -37 56 -83 43 -82 119 -191
199 -285 l42 -49 -115 -89 c-126 -97 -250 -184 -264 -184 -16 0 -149 179 -205
275 -105 179 -194 419 -222 599 -22 145 -22 146 -34 146 -12 0 -6 -48 22 -194
54 -270 198 -574 374 -786 28 -33 57 -60 66 -60 29 0 387 261 397 291 2 5 -21
37 -51 72 -82 94 -144 182 -198 284 l-50 91 -32 -10 c-18 -5 -39 -12 -48 -14
-21 -7 -49 73 -30 85 10 7 6 29 -18 103 -52 162 -72 279 -78 453 -6 164 6 302
32 377 11 33 11 43 -2 69 -10 20 -14 48 -11 80 3 27 4 49 2 49 -2 0 -8 -18
-14 -40z"/>
<path d="M3940 2995 c0 -3 9 -37 19 -77 35 -128 44 -229 37 -396 -3 -87 -9
-176 -12 -198 l-6 -41 49 -10 48 -9 -2 -39 c-5 -74 -63 -259 -118 -372 -53
-111 -60 -154 -11 -70 60 103 154 386 157 473 1 16 6 91 11 166 14 185 -13
488 -44 488 -6 0 -8 -10 -5 -22 29 -121 40 -384 23 -530 -7 -65 -9 -68 -34
-68 -51 0 -55 9 -41 100 14 102 6 368 -14 460 -26 112 -37 150 -47 150 -6 0
-10 -2 -10 -5z"/>
<path d="M1122 2914 c-22 -47 -42 -196 -42 -310 0 -138 14 -240 47 -353 14
-47 27 -93 30 -101 3 -12 -13 -21 -64 -36 -76 -23 -78 -22 -89 42 l-6 40 48
15 c26 8 50 21 52 28 3 8 0 11 -6 7 -12 -7 -24 31 -43 139 -15 81 -18 297 -6
403 5 44 5 72 -1 72 -14 0 -21 -50 -28 -205 -5 -116 -3 -162 15 -266 11 -69
23 -133 26 -141 4 -11 -2 -18 -20 -22 -14 -4 -30 -4 -34 -2 -30 19 -48 400
-27 571 11 94 -8 75 -23 -22 -20 -128 -14 -332 14 -501 26 -157 38 -202 53
-202 5 0 42 11 82 25 48 16 77 22 84 15 9 -9 -39 -34 -102 -54 -18 -6 -21 -12
-16 -29 11 -36 83 -175 94 -182 18 -11 11 8 -30 85 -22 41 -40 82 -40 91 0 11
18 23 53 36 l52 19 53 -101 c78 -145 153 -245 272 -365 169 -169 373 -297 615
-386 55 -20 105 -41 112 -46 13 -11 30 10 17 21 -5 5 -52 22 -104 40 -414 141
-749 432 -920 799 -23 48 -50 103 -60 122 -77 144 -102 495 -52 703 19 76 16
101 -6 51z"/>
<path d="M4154 2918 c4 -13 13 -68 22 -123 20 -129 14 -462 -11 -574 -9 -40
-14 -75 -11 -78 11 -11 25 40 41 147 31 204 5 650 -36 650 -7 0 -9 -9 -5 -22z"/>
<path d="M3260 2730 c-44 -44 -12 -123 50 -123 22 0 39 7 52 22 55 69 -40 163
-102 101z"/>
<path d="M4624 2656 c3 -43 6 -155 6 -248 0 -124 3 -167 11 -162 16 10 7 443
-10 470 -10 15 -11 5 -7 -60z"/>
<path d="M1870 2710 c0 -6 38 -10 95 -10 57 0 95 4 95 10 0 6 -38 10 -95 10
-57 0 -95 -4 -95 -10z"/>
<path d="M1867 2673 c-16 -15 -4 -23 34 -23 49 0 50 -23 1 -28 -18 -2 -32 -7
-32 -13 0 -5 40 -9 88 -9 l88 0 18 -60 c21 -69 32 -81 64 -69 30 11 29 39 -2
39 -27 0 -41 30 -52 110 -5 38 -11 50 -28 54 -29 8 -171 7 -179 -1z m173 -33
c0 -5 -13 -10 -30 -10 -16 0 -30 5 -30 10 0 6 14 10 30 10 17 0 30 -4 30 -10z"/>
<path d="M480 2600 c0 -11 6 -20 13 -20 19 0 27 10 20 26 -8 21 -33 17 -33 -6z"/>
<path d="M3255 2568 c-12 -36 -33 -144 -29 -150 3 -5 11 -8 18 -8 14 0 31 50
41 123 6 40 5 47 -9 47 -9 0 -19 -6 -21 -12z"/>
<path d="M3347 2574 c-8 -8 1 -24 14 -24 5 0 9 7 9 15 0 15 -12 20 -23 9z"/>
<path d="M421 2494 c-50 -44 -66 -89 -52 -142 13 -46 45 -79 92 -92 93 -27
166 1 194 74 23 60 8 112 -45 160 -36 32 -46 36 -95 36 -49 0 -59 -4 -94 -36z
m155 -5 c24 -19 -2 -29 -80 -29 -62 0 -67 2 -55 16 28 35 101 41 135 13z m-13
-66 c-23 -2 -64 -2 -90 0 -26 2 -7 3 42 3 50 0 71 -1 48 -3z m84 -55 c-2 -13
-4 -3 -4 22 0 25 2 35 4 23 2 -13 2 -33 0 -45z m-89 -5 c-27 -2 -69 -2 -95 0
-27 2 -5 3 47 3 52 0 74 -1 48 -3z m-155 -33 c3 -11 1 -18 -4 -14 -5 3 -9 12
-9 20 0 20 7 17 13 -6z m139 -33 c-29 -7 -49 -7 -65 1 -18 9 -10 11 43 10 l65
0 -43 -11z"/>
<path d="M3676 2463 c-4 -38 -9 -78 -13 -90 -4 -18 -1 -23 15 -23 24 0 32 18
32 71 0 21 5 39 10 39 10 0 5 -65 -7 -100 -3 -8 -7 -31 -8 -50 -8 -83 -100
-300 -182 -428 -19 -30 -32 -59 -30 -65 4 -14 85 110 130 198 70 142 127 348
127 464 l0 51 -34 0 -33 0 -7 -67z"/>
<path d="M4547 2383 c-3 -82 -9 -157 -13 -166 -4 -11 -1 -17 9 -17 12 0 16 27
22 156 5 97 4 159 -2 165 -6 6 -12 -43 -16 -138z"/>
<path d="M580 2232 c0 -17 -6 -22 -25 -22 -16 0 -25 -6 -25 -15 0 -10 10 -15
30 -15 25 0 30 -4 30 -25 0 -14 5 -25 11 -25 8 0 9 16 5 53 -7 54 -26 89 -26
49z"/>
<path d="M4577 2223 c-14 -13 -6 -33 13 -33 13 0 20 7 20 20 0 19 -20 27 -33
13z"/>
<path d="M3947 2203 c-12 -19 -19 -83 -9 -83 6 0 13 18 17 41 7 39 3 59 -8 42z"/>
<path d="M4628 2195 c-4 -11 -13 -54 -19 -95 -30 -200 -162 -508 -316 -738
-45 -68 -83 -126 -83 -128 0 -2 5 -4 10 -4 20 0 174 248 246 395 82 169 125
290 155 438 19 95 24 181 7 132z"/>
<path d="M3891 2116 c-9 -10 -9 -16 -1 -21 17 -10 37 12 24 25 -8 8 -15 6 -23
-4z"/>
<path d="M4546 2119 c-3 -8 -17 -63 -31 -123 -30 -130 -76 -249 -156 -406 -69
-135 -98 -174 -118 -161 -12 8 -10 19 16 68 20 37 39 59 52 61 15 2 31 31 66
113 45 106 46 111 29 130 -9 10 -21 19 -27 19 -5 0 -45 15 -88 34 l-79 34 -60
-120 c-56 -111 -125 -224 -196 -321 -35 -47 -25 -59 14 -16 l29 32 60 -46 c64
-49 123 -111 123 -129 0 -44 131 155 215 328 36 73 80 178 99 235 37 110 72
266 62 276 -3 3 -8 0 -10 -8z m-228 -300 c39 -17 72 -38 72 -45 0 -7 -16 -48
-36 -92 -29 -64 -39 -79 -54 -75 -16 4 -17 8 -5 36 7 17 18 33 24 35 14 5 15
52 1 52 -5 0 -10 -7 -10 -15 0 -15 -35 -21 -43 -7 -3 4 2 24 10 44 l15 37 39
-16 c59 -23 59 -8 -1 22 l-51 26 -12 -33 c-18 -52 -100 -209 -141 -269 l-36
-54 47 -42 c33 -28 45 -45 38 -52 -7 -7 -24 1 -54 25 -25 19 -59 44 -78 55
-18 11 -33 24 -33 29 0 4 25 48 56 96 31 49 78 133 105 187 31 60 55 97 62 94
7 -3 45 -20 85 -38z m-42 -144 c4 -8 -5 -30 -18 -48 -26 -35 -98 -152 -98
-159 0 -4 47 -38 89 -65 2 -1 -12 -22 -30 -47 -18 -25 -34 -44 -37 -42 -2 3 1
21 8 42 12 36 11 37 -27 76 l-40 39 65 110 c36 60 69 109 74 109 5 0 11 -7 14
-15z m8 -84 c3 -5 0 -14 -7 -20 -7 -5 -24 -33 -37 -61 -13 -28 -28 -49 -34
-46 -15 5 -10 22 27 83 32 53 41 61 51 44z"/>
<path d="M4165 2108 c-2 -7 -15 -51 -29 -98 -61 -204 -184 -414 -335 -572 -46
-49 -80 -92 -76 -96 10 -10 148 140 218 236 83 115 161 270 207 411 22 67 40
124 40 126 0 11 -21 4 -25 -7z"/>
<path d="M609 2086 c-11 -12 34 -244 67 -348 36 -113 103 -257 129 -278 13
-11 20 -9 38 9 13 11 27 21 33 20 5 0 33 -34 63 -75 30 -41 59 -74 64 -74 17
0 97 50 97 60 0 15 -9 12 -47 -11 -18 -12 -40 -18 -48 -15 -17 6 -100 117
-123 164 -16 33 -23 34 -63 18 -12 -5 -22 7 -42 51 -51 114 -85 210 -117 323
-44 160 -45 162 -51 156z"/>
<path d="M4310 1985 c0 -8 7 -15 15 -15 8 0 15 7 15 15 0 8 -7 15 -15 15 -8 0
-15 -7 -15 -15z"/>
<path d="M4383 1989 c-13 -13 -5 -49 11 -49 13 0 36 20 36 32 0 14 -36 28 -47
17z"/>
<path d="M743 1964 c-41 -18 -42 -36 -3 -109 17 -32 28 -66 25 -75 -7 -21 63
-173 76 -165 7 5 -32 109 -47 124 -2 3 32 19 77 35 112 42 117 65 6 26 -94
-33 -123 -38 -93 -15 18 13 18 16 4 32 -17 20 -42 67 -52 99 -5 18 -1 24 24
32 16 6 30 16 30 21 0 14 -7 13 -47 -5z"/>
<path d="M3827 1954 c-14 -15 -6 -34 14 -34 14 0 19 5 17 17 -3 18 -20 27 -31
17z"/>
<path d="M3862 1875 c-35 -71 -36 -75 -24 -75 8 0 72 121 72 135 0 3 -4 5 -8
5 -4 0 -22 -29 -40 -65z"/>
<path d="M4290 1920 c0 -23 25 -27 33 -6 7 16 -1 26 -20 26 -7 0 -13 -9 -13
-20z"/>
<path d="M803 1904 c-15 -24 -15 -29 -2 -53 18 -32 42 -38 74 -17 29 19 32 42
9 74 -21 30 -59 29 -81 -4z"/>
<path d="M4354 1905 c-9 -23 4 -47 23 -43 22 4 30 38 11 49 -19 13 -28 11 -34
-6z"/>
<path d="M3545 1850 c-26 -33 -58 -68 -71 -76 -27 -18 -31 -36 -10 -53 11 -9
23 -1 60 41 65 75 99 125 91 137 -12 20 -23 11 -70 -49z"/>
<path d="M907 1754 l-67 -34 14 -34 c53 -127 130 -246 159 -246 7 0 23 9 36
19 24 18 24 18 47 -8 15 -17 23 -21 24 -12 0 8 -24 38 -52 65 -30 29 -73 88
-101 136 -43 78 -46 86 -30 98 9 6 22 12 28 12 7 0 36 -39 65 -87 56 -92 127
-189 154 -212 9 -7 16 -19 16 -25 0 -14 -118 -105 -169 -131 l-33 -17 -39 38
c-54 53 -62 33 -9 -21 l44 -45 55 32 c68 38 171 115 178 134 3 8 -16 37 -42
66 -52 57 -122 159 -174 251 -18 31 -33 56 -34 56 -1 -1 -32 -17 -70 -35z m28
-97 c17 -34 49 -87 71 -117 39 -53 40 -58 23 -68 -15 -10 -22 -6 -47 26 -30
38 -112 193 -112 212 0 5 8 10 18 9 11 0 28 -22 47 -62z"/>
<path d="M3366 1660 c-26 -22 -54 -40 -61 -40 -7 0 -23 -8 -36 -19 l-23 -18
22 -37 c12 -20 22 -41 22 -46 0 -13 -152 -102 -236 -138 -130 -57 -271 -95
-405 -109 -59 -6 -83 -23 -31 -23 40 0 184 27 268 50 134 36 335 133 402 193
27 25 28 44 4 71 -17 18 -17 24 -6 46 l14 25 0 -32 c0 -18 3 -33 7 -33 17 0
131 124 126 136 -8 20 -14 18 -67 -26z"/>
<path d="M3803 1678 c-28 -31 -86 -148 -73 -148 6 0 26 32 45 72 19 40 35 67
35 60 0 -15 46 -16 55 -2 8 13 -12 40 -29 40 -7 0 -22 -10 -33 -22z"/>
<path d="M3644 1439 c-3 -6 -2 -15 2 -19 12 -12 38 5 30 19 -9 14 -23 14 -32
0z"/>
<path d="M3402 1381 c-132 -106 -349 -224 -502 -274 -83 -27 -242 -57 -302
-57 -21 0 -38 -4 -38 -10 0 -23 202 2 321 40 35 11 65 20 66 20 1 0 4 -14 8
-31 4 -17 13 -33 20 -35 15 -6 184 64 265 109 134 75 301 199 288 213 -5 4
-29 -11 -55 -33 -105 -88 -246 -171 -402 -238 -46 -19 -85 -34 -86 -33 -1 2
-5 15 -9 30 -6 25 -2 28 100 77 116 56 237 126 298 174 31 25 42 28 56 19 14
-9 23 -5 45 18 24 25 26 32 15 45 -7 8 -16 15 -20 15 -4 0 -34 -22 -68 -49z"/>
<path d="M2653 1377 l-73 -10 0 -38 0 -39 58 7 c96 11 107 16 105 48 -1 16 -6
31 -10 34 -4 4 -41 3 -80 -2z m66 -41 c-7 -7 -124 -19 -118 -12 3 3 30 9 60
14 51 8 68 7 58 -2z"/>
<path d="M4013 1355 c-3 -9 -2 -19 2 -23 4 -4 10 -1 12 6 7 18 22 15 47 -13
20 -22 25 -23 36 -10 10 12 6 18 -22 35 -39 24 -66 26 -75 5z"/>
<path d="M3590 1219 c-221 -173 -529 -307 -807 -352 -73 -12 -133 -25 -133
-29 0 -23 234 20 393 72 209 69 452 200 582 313 62 55 37 51 -35 -4z"/>
<path d="M4132 1233 c5 -25 28 -28 28 -4 0 12 -6 21 -16 21 -9 0 -14 -7 -12
-17z"/>
<path d="M2314 1176 c-10 -43 0 -54 55 -57 67 -5 71 -3 71 37 0 34 -1 34 -44
34 -24 0 -51 3 -60 6 -10 4 -17 -2 -22 -20z"/>
<path d="M4107 1184 c-10 -11 3 -24 24 -24 10 0 19 7 19 15 0 15 -31 21 -43 9z"/>
<path d="M1240 1120 c0 -33 358 -305 377 -286 3 3 4 7 2 9 -2 2 -42 28 -89 59
-47 31 -131 95 -187 142 -57 48 -103 82 -103 76z"/>
<path d="M2000 1122 c0 -13 67 -36 185 -62 106 -25 362 -40 351 -21 -5 7 -40
11 -95 11 -116 0 -324 37 -423 75 -10 4 -18 3 -18 -3z"/>
<path d="M1706 1064 c-30 -30 -8 -69 35 -62 35 5 47 33 25 57 -23 25 -39 26
-60 5z"/>
<path d="M3851 1000 c-24 -20 -39 -40 -33 -44 5 -3 29 11 53 32 23 21 38 41
33 44 -5 3 -29 -11 -53 -32z"/>
<path d="M3638 972 c-37 -22 -61 -75 -54 -116 9 -45 55 -86 104 -93 35 -5 44
-1 76 28 28 26 39 44 43 76 5 40 3 46 -35 83 -45 45 -86 52 -134 22z m85 -18
c7 -7 -71 -124 -84 -124 -12 0 -29 34 -29 58 0 35 38 72 74 72 18 0 35 -3 39
-6z m64 -86 c-3 -7 -5 -2 -5 12 0 14 2 19 5 13 2 -7 2 -19 0 -25z m-17 -42 c0
-2 -8 -10 -17 -17 -16 -13 -17 -12 -4 4 13 16 21 21 21 13z m-57 -33 c-7 -2
-19 -2 -25 0 -7 3 -2 5 12 5 14 0 19 -2 13 -5z"/>
<path d="M1692 854 c-29 -20 -31 -79 -3 -94 29 -15 56 -12 74 8 22 24 21 65
-1 85 -23 21 -41 21 -70 1z"/>
</g>
</svg>